<svg version="1" xmlns="http://www.w3.org/2000/svg" width="557.333" height="557.333" viewBox="0 0 418.000000 418.000000"><path d="M199.3 1.5C196.1 2.9 12 139.9 6.7 144.9c-1.6 1.4-3.7 4.3-4.8 6.3C.1 154.8 0 158.9 0 278.5s.1 123.7 1.9 127.3c2.2 4.3 6.3 8.3 10.8 10.6 2.9 1.5 20.6 1.6 196.3 1.6 189.2 0 193.2 0 196.9-1.9 4.2-2.2 9.7-8 11.2-11.8.5-1.4.9-51.9.9-126 0-136.2.5-126.6-6.3-133.1-5.2-5-186.8-140.4-191.6-142.9-5.2-2.7-15.6-3.1-20.8-.8zM175 152c0 3.6-.2 4-2.6 4-9.8 0-18 5.8-21 15-1.6 4.8-1.8 10.4-2.2 45.2l-.3 39.8H272v-37.3c0-39.1-.7-47.1-4.8-54.1-2.4-4.1-8.9-7.6-15.7-8.3l-5.5-.6V148h84v4c0 3.7-.2 4-2.8 4-1.6 0-5.1.7-7.9 1.5-6.4 1.9-10.6 6.5-13 14.3-1.7 5.3-1.8 12.1-1.8 91.7 0 78.7.1 86.5 1.7 91.6 3 9.7 8.4 14.1 18.7 15.5l5.1.7V379h-84v-7.6l6.5-1.1c11.8-2 16.3-7 18.4-20.3.6-3.7 1.1-23 1.1-44.3V268H148.9l.3 41.2c.4 35.4.7 42 2.1 46.4 3.1 9.3 8.5 13.6 18.6 15l5.1.7V379H92v-7.6l6.5-1.1c7.3-1.3 12.5-4.5 15.1-9.4 4.2-8.1 4.4-12.7 4.4-96.9 0-51-.4-82.9-1.1-87-2.1-13.4-7.8-19.5-19.4-20.7l-5.5-.6V148h83v4z"/></svg>