<svg id="Livello_1" data-name="Livello 1" xmlns="http://www.w3.org/2000/svg" width="624.255" height="130.979" viewBox="0 0 624.255 130.979"><defs><style>.cls-1{fill:#212121;}.cls-2{isolation:isolate;}.cls-3{fill:#acacac;}.cls-4{fill:#80cbc4;}</style></defs><title>logo</title><path class="cls-1" d="M291.418,100.286a4.9435,4.9435,0,0,1-5.039,4.842h-80.63a4.9435,4.9435,0,0,1-5.039-4.842V49.394a4.7772,4.7772,0,0,1,1.945-3.825L242.97,15.44a5.2026,5.2026,0,0,1,6.188,0l40.315,30.129a4.7772,4.7772,0,0,1,1.945,3.825Z"/><g class="cls-2"><path class="cls-3" d="M49.0034,49.1025H41.4419V87.4131q0,4.5074,1.1045,6.08t4.2905,1.5732v1.4443H29.2075V95.0664q3.2886,0,4.4693-1.8066t1.1806-6.1016V49.1025H27.6357q-5.1833,0-7.54,1.6563-2.3585,1.6583-2.6553,5.48H15.9536V44.8115H17.44q1.9966,1.8706,7.4766,1.8692H51.0425q5.6491,0,7.9013-1.8692h1.5718V56.2393h-.977q-.9347-4.1207-3.3345-5.6289T49.0034,49.1025Z"/><path class="cls-3" d="M94.4463,90.0879V74.8564a6.9055,6.9055,0,0,0-1.6992-4.8925,5.854,5.854,0,0,0-4.503-1.83,8.3576,8.3576,0,0,0-4.6518,1.3379,17.1013,17.1013,0,0,0-4.3115,4.5244V90.8945q0,2.3849,1.1045,3.2784t4.0356.8935v1.4443H67.896V95.0664q3.5259-.0849,4.5029-1.1475t.9771-4.7617V49.0215q0-2.8051-.9986-3.7207t-4.4814-.9131V42.9424l9.94-1.0615h1.4444V71.0225a22.74,22.74,0,0,1,5.374-4.7793,10.6658,10.6658,0,0,1,5.416-1.3809,10.0023,10.0023,0,0,1,7.3916,2.8936,10.5285,10.5285,0,0,1,2.8887,7.7851V89.1533q0,3.6153.977,4.7647t3.9932,1.1484v1.4443H89.3062V95.0664q3.1435,0,4.1416-.9785T94.4463,90.0879Z"/><path class="cls-3" d="M143.2451,88.6094V90.86a18.4853,18.4853,0,0,1-5.7138,5.0976,14.8448,14.8448,0,0,1-6.9878,1.5293,16.4711,16.4711,0,0,1-11.9156-4.5234,15.2736,15.2736,0,0,1-4.6943-11.4912,16.6552,16.6552,0,0,1,4.4814-11.81,14.4448,14.4448,0,0,1,10.9815-4.8008,13.4919,13.4919,0,0,1,9.3457,3.6113,11.2437,11.2437,0,0,1,3.9932,8.6231v.6377H120.0933v.4248a23.1409,23.1409,0,0,0,1.55,8.8574,13.21,13.21,0,0,0,4.5244,5.8828,10.5154,10.5154,0,0,0,6.2021,2.125,10.0576,10.0576,0,0,0,5.1612-1.2539A28.3021,28.3021,0,0,0,143.2451,88.6094ZM120.0933,76.2471h16.78v-.5938a8.9818,8.9818,0,0,0-2.3574-6.5429,7.88,7.88,0,0,0-5.8838-2.4209,7.6612,7.6612,0,0,0-6.0107,2.5488A11.1592,11.1592,0,0,0,120.0933,76.2471Z"/></g><g class="cls-2"><path class="cls-3" d="M333.98,81.2178a15.48,15.48,0,0,1-4.8213,11.6181,17.9172,17.9172,0,0,1-24.0869,0A15.478,15.478,0,0,1,300.25,81.2178a15.6113,15.6113,0,0,1,4.8-11.7032,17.97,17.97,0,0,1,24.1294,0A15.6164,15.6164,0,0,1,333.98,81.2178Zm-6.415.0215q0-6.5932-2.8028-10.6358a9.31,9.31,0,0,0-15.2934-.0849q-2.8038,3.9565-2.8037,10.7207,0,6.6372,2.7827,10.5937a9.38,9.38,0,0,0,15.3349-.0439Q327.564,87.7915,327.5645,81.2393Z"/><path class="cls-3" d="M354.7832,64.8623v6.415h.17a14.4789,14.4789,0,0,1,4.9073-4.6728,11.9282,11.9282,0,0,1,6.0537-1.7422A9.9919,9.9919,0,0,1,375.6,71.7871q4.9278-6.9243,11.3848-6.9248a10.5249,10.5249,0,0,1,7.4765,2.7793,9.9165,9.9165,0,0,1,2.9727,7.6143V90.7393q0,2.5033,1.0957,3.373t4.0449.8691v1.5293H386.2617V94.9814q3.3544,0,4.291-1.081.9332-1.0811.9336-4.8145v-14.59a6.13,6.13,0,0,0-1.7832-4.666,6.801,6.801,0,0,0-4.8857-1.6963q-4.8428,0-8.708,5.9473V90.5732q0,2.5855,1.1035,3.4971t4.0361.9111v1.5293H365.0645V94.9814q3.4818,0,4.3115-1.1025.8276-1.1029.8281-4.793V74.835a6.5861,6.5861,0,0,0-1.8271-4.877,6.3847,6.3847,0,0,0-4.7149-1.8242,8.6946,8.6946,0,0,0-4.9062,1.6142,12.8928,12.8928,0,0,0-3.9727,4.3331v16.746a4.0587,4.0587,0,0,0,1.1475,3.3067q1.1469.9331,4.0781.9326v1.4443H343.6543V94.9814q3.3984,0,4.3115-1.0625.9126-1.06.9131-3.9082V71.7451a4.9256,4.9256,0,0,0-.998-3.4414,4.36,4.36,0,0,0-3.293-1.0625h-1.9111V65.7979l10.62-.9356Z"/><path class="cls-3" d="M441.9844,88.6094V90.86a18.49,18.49,0,0,1-5.7129,5.0976,14.8478,14.8478,0,0,1-6.9883,1.5293,16.4731,16.4731,0,0,1-11.916-4.5234,15.2766,15.2766,0,0,1-4.6934-11.4912,16.6566,16.6566,0,0,1,4.48-11.81,14.4459,14.4459,0,0,1,10.9824-4.8008,13.4917,13.4917,0,0,1,9.3457,3.6113,11.244,11.244,0,0,1,3.9922,8.6231v.6377H418.833v.4248a23.1507,23.1507,0,0,0,1.55,8.8574,13.2164,13.2164,0,0,0,4.5254,5.8828,10.5115,10.5115,0,0,0,6.2012,2.125,10.06,10.06,0,0,0,5.1621-1.2539A28.3139,28.3139,0,0,0,441.9844,88.6094ZM418.833,76.2471h16.78v-.5938a8.9859,8.9859,0,0,0-2.3574-6.5429,7.881,7.881,0,0,0-5.8848-2.4209,7.658,7.658,0,0,0-6.01,2.5488A11.1594,11.1594,0,0,0,418.833,76.2471Z"/><path class="cls-3" d="M461.8965,64.8623v5.1836a21.7355,21.7355,0,0,1,5.3418-4.0146,12.1427,12.1427,0,0,1,5.3828-1.169,12.6216,12.6216,0,0,1,9.957,4.5674,16.9153,16.9153,0,0,1,3.9571,11.4912,16.7768,16.7768,0,0,1-4.3614,11.8516,14.2963,14.2963,0,0,1-10.957,4.7148q-4.5556,0-9.32-3.6523v20.2627q0,3.1435,1.084,4.1416,1.0824.9975,4.0566.998v1.4453H450.5547v-1.4453q3.186,0,4.291-.8926t1.1035-3.4V72.0459q0-3.1039-.9336-3.9541t-4.4609-.8506V65.7979l9.8555-.9356Zm0,7.4766V91.626a11.36,11.36,0,0,0,8.5166,3.8222,8.2853,8.2853,0,0,0,6.9189-3.8652,15.98,15.98,0,0,0,2.7891-9.6006,17.6047,17.6047,0,0,0-2.7891-10.2373,8.3406,8.3406,0,0,0-7.09-4.0361Q465.9,67.709,461.8965,72.3389Z"/><path class="cls-3" d="M505.9805,97.4873a8.8117,8.8117,0,0,1-6.2022-2.3994,7.6183,7.6183,0,0,1-2.5908-5.7988,7.0111,7.0111,0,0,1,2.2295-5.3311q2.231-2.1034,9.0693-4.0146a29.1431,29.1431,0,0,0,5.7774-2.0391V75.61a7.7509,7.7509,0,0,0-1.8692-5.4161,6.4323,6.4323,0,0,0-5.0117-2.0605,7.8188,7.8188,0,0,0-5.0557,1.7842,9.4137,9.4137,0,0,0-3.1,4.8427l-1.5723-.4248a11.9539,11.9539,0,0,1,4.0566-6.8818,11.9945,11.9945,0,0,1,15.378.4033q3.0806,2.9956,3.08,8.3057V89.374a13.0719,13.0719,0,0,0,.3614,3.8018,1.3627,1.3627,0,0,0,1.38.999,1.3154,1.3154,0,0,0,1.1054-.5742,9.0234,9.0234,0,0,0,.9766-2.4h1.4863a7.2527,7.2527,0,0,1-1.8047,4.5879,5.47,5.47,0,0,1-4.1845,1.6992q-3.7807,0-5.2256-4.375a16.1474,16.1474,0,0,1-4.0782,3.4414A8.9536,8.9536,0,0,1,505.9805,97.4873Zm8.2832-7.2207V79.8154q-1.3155.5538-3.8223,1.4024Q505.81,82.79,504.5146,84.34a6.32,6.32,0,0,0-1.2958,4.1846A6.0578,6.0578,0,0,0,504.6,92.4961a4.1429,4.1429,0,0,0,3.293,1.6787,7.2249,7.2249,0,0,0,3.6523-1.126A6.637,6.637,0,0,0,514.2637,90.2666Z"/><path class="cls-3" d="M556.6484,65.2021h9.8985v3.4844h-8.1563a13.8272,13.8272,0,0,1,3.4824,8.9629,11.7739,11.7739,0,0,1-3.3769,8.2832,11.6,11.6,0,0,1-8.0918,3.8662,14.3879,14.3879,0,0,0-6.6914,2.1631q-3.3341,1.9936-3.334,3.5635a2.7177,2.7177,0,0,0,1.7637,2.5449q1.7637.8481,8.2656,1.9883a65.9744,65.9744,0,0,1,10.0449,2.3721,10.0628,10.0628,0,0,1,4.416,3.041,6.963,6.963,0,0,1,1.5918,4.4883q0,5.4433-5.5009,9.1884a23.338,23.338,0,0,1-13.4444,3.7432q-6.7558,0-10.9394-2.6133t-4.1836-6.8183a6.9838,6.9838,0,0,1,2.3994-5.2032,25.51,25.51,0,0,1,7.583-4.4394v-.17a11.5457,11.5457,0,0,1-4.9277-2.23,4.4115,4.4115,0,0,1-1.7842-3.42q0-5.0978,9.5156-8.4532v-.17a13.507,13.507,0,0,1-7.1582-4.2695,11.1433,11.1433,0,0,1-2.5273-7.37,12.3843,12.3843,0,0,1,3.7168-9.2178,12.8172,12.8172,0,0,1,9.3671-3.6543q1.1046,0,4.0782.17Q555.6274,65.2037,556.6484,65.2021Zm6.627,47.4942q0-3.0175-3.7813-4.6943-3.7808-1.6788-14.3154-3.5049-8.9634,2.4213-8.9639,7.3066,0,3.3135,4.418,5.544a24.3965,24.3965,0,0,0,11.0449,2.2294,16.2737,16.2737,0,0,0,8.3692-1.9111Q563.2754,115.7544,563.2754,112.6963Zm-22.2168-35.6a14.1,14.1,0,0,0,2.081,8.0722,6.6093,6.6093,0,0,0,11.1084.0635,14.154,14.154,0,0,0,2.0606-8.1357,12.75,12.75,0,0,0-2.1025-7.6035,6.4409,6.4409,0,0,0-5.459-2.9317,6.5832,6.5832,0,0,0-5.5655,2.91A12.6339,12.6339,0,0,0,541.0586,77.0967Z"/><path class="cls-3" d="M605.0225,88.6094V90.86a18.4922,18.4922,0,0,1-5.7139,5.0976,14.8453,14.8453,0,0,1-6.9883,1.5293,16.4707,16.4707,0,0,1-11.915-4.5234,15.2737,15.2737,0,0,1-4.6944-11.4912,16.6574,16.6574,0,0,1,4.4815-11.81,14.4438,14.4438,0,0,1,10.9814-4.8008,13.4917,13.4917,0,0,1,9.3457,3.6113,11.2421,11.2421,0,0,1,3.9932,8.6231v.6377H581.8711v.4248a23.1316,23.1316,0,0,0,1.55,8.8574,13.2145,13.2145,0,0,0,4.5244,5.8828,10.5166,10.5166,0,0,0,6.2022,2.125,10.0562,10.0562,0,0,0,5.1611-1.2539A28.3128,28.3128,0,0,0,605.0225,88.6094ZM581.8711,76.2471H598.65v-.5938A8.9818,8.9818,0,0,0,596.293,69.11a7.88,7.88,0,0,0-5.8838-2.4209,7.6616,7.6616,0,0,0-6.0108,2.5488A11.159,11.159,0,0,0,581.8711,76.2471Z"/></g><g class="cls-2"><path class="cls-4" d="M260.0547,87.1494V72.6787H232.91V87.1494q0,4.4268,1.2529,6.1719t4.5244,1.7451v1.4443H220.6753V95.0664q3.2711,0,4.46-1.7646t1.1895-6.1436V56.0762q0-4.5909-1.21-6.27t-4.4394-1.68V46.6807H238.687V48.126q-3.2717,0-4.5244,1.8047T232.91,56.0693V70.2578h27.145V56.0693q0-4.5879-1.1685-6.2656T254.49,48.126V46.6807h17.8418V48.126q-3.186,0-4.4179,1.7431t-1.232,6.2071v31.082q0,4.4634,1.232,6.1865t4.4179,1.7217v1.4443H254.49V95.0664q3.3135,0,4.4395-1.7236T260.0547,87.1494Z"/></g></svg>