<?xml version="1.0" encoding="utf-8"?>
<!-- Generator: Adobe Illustrator 23.0.2, SVG Export Plug-In . SVG Version: 6.00 Build 0)  -->
<svg version="1.1" id="Livello_1" xmlns="http://www.w3.org/2000/svg" xmlns:xlink="http://www.w3.org/1999/xlink" x="0px" y="0px"
	 viewBox="0 0 624.255 130.979" enable-background="new 0 0 624.255 130.979" xml:space="preserve">
<path fill="#212121" d="M291.418,100.286c0,2.674-2.256,4.842-5.039,4.842h-80.63c-2.783,0-5.039-2.168-5.039-4.842V49.394
	c-0.001-1.495,0.717-2.907,1.945-3.825L242.97,15.44c1.82-1.36,4.368-1.36,6.188,0l40.315,30.129
	c1.228,0.918,1.946,2.33,1.945,3.825C291.418,49.394,291.418,100.286,291.418,100.286z"/>
<text transform="matrix(1 0 0 1 13.7872 96.5105)" fill="#ACACAC" font-family="'Perpetua'" font-size="87px" letter-spacing="5">The</text>
<text transform="matrix(1 0 0 1 297.1914 96.5105)" fill="#ACACAC" font-family="'Perpetua'" font-size="87px" letter-spacing="5">omepage</text>
<text transform="matrix(1 0 0 1 217.5319 96.5105)" fill="#80CBC4" font-family="'Perpetua'" font-size="87px" letter-spacing="5">H</text>
</svg>
