<svg width="285" height="86" xmlns="http://www.w3.org/2000/svg" xmlns:svg="http://www.w3.org/2000/svg">
 <g class="layer">
  <title>Layer 1</title>
  <g id="svg_1" fill-rule="evenodd" clip-rule="evenodd">
   <path id="svg_2" fill="#f90" d="m176.8,67.1c-16.5,12.2 -40.5,18.7 -61.2,18.7c-29,0 -55,-10.7 -74.8,-28.5c-1.5,-1.4 -0.2,-3.3 1.7,-2.2c21.3,12.4 47.6,19.8 74.8,19.8c18.3,0 38.5,-3.8 57.1,-11.7c2.8,-1.1 5.1,1.9 2.4,3.9z"/>
   <path id="svg_3" fill="#f90" d="m183.7,59.2c-2.1,-2.7 -14,-1.3 -19.3,-0.6c-1.6,0.2 -1.9,-1.2 -0.4,-2.2c9.5,-6.7 25,-4.7 26.8,-2.5s-0.5,17.8 -9.4,25.2c-1.4,1.1 -2.7,0.5 -2.1,-1c2,-5 6.5,-16.1 4.4,-18.9z"/>
   <path id="svg_4" d="m164.7,9.4l0,-6.5c0,-1 0.7,-1.6 1.6,-1.6l29,0c0.9,0 1.7,0.7 1.7,1.6l0,5.5c0,0.9 -0.8,2.1 -2.2,4.1l-15,21.4c5.6,-0.1 11.5,0.7 16.5,3.5c1.1,0.6 1.4,1.6 1.5,2.5l0,6.9c0,1 -1,2.1 -2.1,1.5c-8.9,-4.7 -20.8,-5.2 -30.6,0.1c-1,0.5 -2.1,-0.5 -2.1,-1.5l0,-6.6c0,-1 0,-2.8 1.1,-4.4l17.4,-24.9l-15.1,0c-0.9,0 -1.7,-0.7 -1.7,-1.6zm-105.7,40.3l-8.8,0c-0.8,-0.1 -1.5,-0.7 -1.6,-1.5l0,-45.2c0,-0.9 0.8,-1.6 1.7,-1.6l8.2,0c0.9,0 1.5,0.7 1.6,1.5l0,5.9l0.2,0c2.1,-5.7 6.2,-8.4 11.6,-8.4c5.5,0 9,2.7 11.4,8.4c2.1,-5.7 7,-8.4 12.2,-8.4c3.7,0 7.7,1.5 10.2,5c2.8,3.8 2.2,9.3 2.2,14.2l0,28.6c0,0.9 -0.8,1.6 -1.7,1.6l-8.7,0c-0.9,-0.1 -1.6,-0.8 -1.6,-1.6l0,-24c0,-1.9 0.2,-6.7 -0.2,-8.5c-0.7,-3 -2.6,-3.9 -5.2,-3.9c-2.1,0 -4.4,1.4 -5.3,3.7s-0.8,6.1 -0.8,8.7l0,24c0,0.9 -0.8,1.6 -1.7,1.6l-8.8,0c-0.9,-0.1 -1.6,-0.8 -1.6,-1.6l0,-24c0,-5 0.8,-12.5 -5.4,-12.5c-6.3,0 -6.1,7.2 -6.1,12.5l0,24c-0.1,0.8 -0.8,1.5 -1.8,1.5zm163,-49.3c13.1,0 20.2,11.2 20.2,25.5c0,13.8 -7.8,24.8 -20.2,24.8c-12.8,0 -19.8,-11.2 -19.8,-25.2c-0.1,-14.1 7,-25.1 19.8,-25.1zm0,9.3c-6.5,0 -6.9,8.9 -6.9,14.4s-0.1,17.3 6.8,17.3c6.8,0 7.2,-9.5 7.2,-15.3c0,-3.8 -0.2,-8.4 -1.3,-12c-1,-3.2 -3,-4.4 -5.8,-4.4zm37.1,40l-8.8,0c-0.9,-0.1 -1.6,-0.8 -1.6,-1.6l0,-45.3c0.1,-0.8 0.8,-1.5 1.7,-1.5l8.2,0c0.8,0 1.4,0.6 1.6,1.3l0,6.9l0.2,0c2.5,-6.2 5.9,-9.1 12,-9.1c3.9,0 7.8,1.4 10.3,5.3c2.3,3.6 2.3,9.7 2.3,14.1l0,28.5c-0.1,0.8 -0.8,1.4 -1.7,1.4l-8.8,0c-0.8,-0.1 -1.5,-0.7 -1.6,-1.4l0,-24.6c0,-5 0.6,-12.2 -5.5,-12.2c-2.1,0 -4.1,1.4 -5.1,3.6c-1.2,2.8 -1.4,5.5 -1.4,8.6l0,24.4c-0.1,0.9 -0.9,1.6 -1.8,1.6zm-117.5,-21.6c0,3.4 0.1,6.3 -1.6,9.4c-1.4,2.5 -3.6,4 -6.1,4c-3.4,0 -5.4,-2.6 -5.4,-6.4c0,-7.5 6.7,-8.9 13.1,-8.9l0,1.9zm8.9,21.5c-0.6,0.5 -1.4,0.6 -2.1,0.2c-2.9,-2.4 -3.5,-3.6 -5.1,-5.9c-4.8,4.9 -8.3,6.4 -14.5,6.4c-7.4,0 -13.2,-4.6 -13.2,-13.7c0,-7.2 3.9,-12 9.4,-14.4c4.8,-2.1 11.5,-2.5 16.6,-3.1l0,-1.1c0,-2.1 0.2,-4.6 -1.1,-6.4c-1.1,-1.6 -3.1,-2.3 -4.9,-2.3c-3.4,0 -6.4,1.7 -7.1,5.3c-0.2,0.8 -0.7,1.6 -1.5,1.6l-8.5,-0.9c-0.7,-0.2 -1.5,-0.7 -1.3,-1.8c2,-10.4 11.3,-13.5 19.7,-13.5c4.3,0 9.9,1.1 13.3,4.4c4.3,4 3.9,9.4 3.9,15.2l0,13.7c0,4.1 1.7,5.9 3.3,8.2c0.6,0.8 0.7,1.8 0,2.3c-1.9,1.5 -5.1,4.3 -6.9,5.8zm-124.4,-21.5c0,3.4 0.1,6.3 -1.6,9.4c-1.4,2.5 -3.6,4 -6.1,4c-3.4,0 -5.4,-2.6 -5.4,-6.4c0,-7.5 6.7,-8.9 13.1,-8.9l0,1.9zm8.8,21.5c-0.6,0.5 -1.4,0.6 -2.1,0.2c-2.9,-2.4 -3.5,-3.6 -5.1,-5.9c-4.8,4.9 -8.3,6.4 -14.5,6.4c-7.4,0 -13.2,-4.6 -13.2,-13.7c0,-7.2 3.9,-12 9.4,-14.4c4.8,-2.1 11.5,-2.5 16.6,-3.1l0,-1.1c0,-2.1 0.2,-4.6 -1.1,-6.4c-1.1,-1.6 -3.1,-2.3 -4.9,-2.3c-3.4,0 -6.4,1.7 -7.1,5.3c-0.2,0.8 -0.7,1.6 -1.5,1.6l-8.5,-0.9c-0.7,-0.2 -1.5,-0.7 -1.3,-1.8c2,-10.4 11.3,-13.5 19.7,-13.5c4.3,0 9.9,1.1 13.3,4.4c4.3,4 3.9,9.4 3.9,15.2l0,13.7c0,4.1 1.7,5.9 3.3,8.2c0.6,0.8 0.7,1.8 0,2.3c-1.9,1.5 -5.1,4.3 -6.9,5.8z"/>
  </g>
 </g>
</svg>