<?xml version="1.0" encoding="utf-8"?>
<!-- Generator: Adobe Illustrator 23.0.2, SVG Export Plug-In . SVG Version: 6.00 Build 0)  -->
<svg version="1.1" id="Livello_1" xmlns="http://www.w3.org/2000/svg" xmlns:xlink="http://www.w3.org/1999/xlink" x="0px" y="0px"
	 viewBox="0 0 114.736 55.454" enable-background="new 0 0 114.736 55.454" xml:space="preserve">
<title>yelp_logo_vector</title>
<g id="Background">
	<rect x="-38.511" y="-64.083" fill="none" width="250" height="160"/>
</g>
<path id="Yelp_Logos" fill="#80CBC4" d="M77.359,41.387c-0.002,2.088-1.695,3.779-3.783,3.777c-2.085-0.002-3.775-1.692-3.777-3.777
	V3.777C69.801,1.689,71.495-0.002,73.582,0c2.085,0.002,3.775,1.692,3.777,3.777V41.387z M44.629,30.917h13.86
	c2.154-0.196,3.774-2.049,3.68-4.21l0,0c0-0.07,0-0.13,0-0.2c-0.67-13.8-9.54-15.8-13.56-15.8c-4.18,0-13.64,2.47-13.64,17.82
	c0.07,5.77,1.31,16.8,13.44,16.8c10.48,0,12.83-6.06,12.83-7.6c0-2.28-1.9-4.21-4-3.48c-1.74,0.59-4.12,4.05-8,4.05
	c-5.5,0-6.21-5-6.21-6.1C43.009,31.257,43.489,30.917,44.629,30.917z M42.989,24.157c0.25-5.22,4.21-6.08,6-6.08s5.75,0.87,6,6.17
	c0,0.28-0.15,0.45-0.32,0.45h-11.35c-0.18-0.05-0.35-0.24-0.33-0.59V24.157z M13.629,40.467l-11.81-24.2
	c-0.939-1.933-0.133-4.261,1.8-5.2c1.933-0.939,4.261-0.133,5.2,1.8l9.15,18.73l5.62-18.18c0.635-2.049,2.811-3.195,4.86-2.56
	c2.049,0.635,3.195,2.811,2.56,4.86l0,0c0,0-6.32,20.68-10.12,32.56c-1.26,3.94-4.55,5.89-9.49,5.76s-5.65-3-5.1-4.89
	c0.59-2.09,2.34-2.72,4-2.72C14.719,46.457,15.289,43.777,13.629,40.467z M114.699,26.367c0-5-0.61-11.76-6.88-14.74
	c-3.573-1.71-7.75-1.602-11.23,0.29c-0.663,0.384-1.304,0.805-1.92,1.26c-0.5-2.027-2.548-3.265-4.575-2.765
	c-1.683,0.415-2.868,1.922-2.875,3.655v37.61c0.002,2.088,1.695,3.779,3.783,3.777c2.085-0.002,3.775-1.692,3.777-3.777v-9.87
	c1.679,1.904,4.046,3.062,6.58,3.22C115.709,45.397,114.769,29.787,114.699,26.367z M107.209,29.237c0,3,0,8.35-5.43,8.35
	s-5.43-5.37-5.43-8.35v-2.73c0-3,0-8.35,5.43-8.35s5.43,5.36,5.43,8.35V29.237z"/>
</svg>
