<?xml version="1.0" encoding="utf-8"?>
<!-- Generator: Adobe Illustrator 23.0.2, SVG Export Plug-In . SVG Version: 6.00 Build 0)  -->
<svg version="1.1" id="Livello_1" xmlns:svg="http://www.w3.org/2000/svg"
	 xmlns="http://www.w3.org/2000/svg" xmlns:xlink="http://www.w3.org/1999/xlink" x="0px" y="0px" viewBox="0 0 560 161.7"
	 style="enable-background:new 0 0 560 161.7;" xml:space="preserve">
<style type="text/css">
	.st0{fill:#80CBC4;}
</style>
<g>
	<title>Layer 1</title>
	<g id="svg_14">
		<path id="svg_15" class="st0" d="M73.8,103.5V53.8h18c17.1,0,25,12.6,25,24.3c0,12.6-7.7,25.4-25,25.4L73.8,103.5L73.8,103.5z
			 M79.5,97.8h12.3C105,97.8,111,87.9,111,78c0-9-6-18.7-19.2-18.7H79.5V97.8z M139.4,104.1c-9.2,0-15.1-6.3-15.1-16.1V68.6h5.4
			v19.2c0,7.1,4.1,11.3,11,11.3c6.5-0.1,11.1-5,11.1-11.8V68.6h5.4v34.9h-4.9l-0.3-6.1l-0.8,1C148.2,102.1,144.3,104,139.4,104.1
			L139.4,104.1z M183.3,104.1c-9.1,0-18.2-5.6-18.2-18.1c0-10.8,7.3-18.1,18.2-18.1c4.8,0,9,1.7,12.5,5.1l-3.4,3.5
			c-2.4-2.2-5.6-3.5-8.9-3.5c-7.6,0-12.9,5.3-12.9,13c0,9,6.5,13,12.9,13c3.6,0,6.9-1.3,9.2-3.6l3.5,3.5
			C192.6,102.4,188.3,104.1,183.3,104.1L183.3,104.1z M225.5,103.5l-17-17v17h-5.3V53.9h5.3v30l14.9-15.3h6.9l-16.4,16.4l18.4,18.4
			v0.1H225.5z M238.9,103.5V53.8h18c17.1,0,25,12.6,25,24.3c0,12.6-7.7,25.4-25,25.4L238.9,103.5z M244.6,97.8h12.3
			c13.3,0,19.2-9.9,19.2-19.7c0-9-6-18.7-19.2-18.7h-12.3V97.8z M304.5,104.1c-9.2,0-15.1-6.3-15.1-16.1V68.6h5.4v19.2
			c0,7.1,4.1,11.3,11,11.3c6.4-0.1,11.1-5,11.1-11.8V68.6h5.4v34.9h-4.9l-0.3-6.1l-0.8,1C313.3,102.1,309.4,104,304.5,104.1z
			 M348.4,104.1c-9.1,0-18.2-5.6-18.2-18.1c0-10.8,7.3-18.1,18.2-18.1c4.8,0,9,1.7,12.5,5.1l-3.4,3.5c-2.4-2.2-5.6-3.5-8.9-3.5
			c-7.6,0-12.9,5.3-12.9,13c0,9,6.5,13,12.9,13c3.6,0,6.9-1.3,9.2-3.6l3.4,3.4L361,99l0.1,0.1C357.6,102.4,353.3,104.1,348.4,104.1
			L348.4,104.1z M390.7,103.5l-17-17v17h-5.3V53.9h5.3v30l14.9-15.3h6.9L379,85.1l18.4,18.4v0.1H390.7L390.7,103.5z M425.6,104.4
			c-19.1,0-25.9-13.6-25.9-25.3c0-7.6,2.5-14.4,7.2-19.1c4.6-4.7,11.1-7.1,18.6-7.1c6.7,0,13.2,2.6,18.1,7.3l-3.2,3.8
			c-3.8-3.6-9.5-5.8-14.8-5.8c-13.8,0-20.2,10.9-20.2,20.9c0,9.9,6.3,19.9,20.3,19.9c5.1,0,9.9-1.7,13.8-5.1l0.2-0.1V81.6H424v-5
			h20.8v19.5C439.4,101.7,433.1,104.4,425.6,104.4L425.6,104.4z M469.5,104.1c-10.5,0-18.1-7.6-18.1-18c0-10.6,7.6-18.3,18.1-18.3
			c10.7,0,18.1,7.5,18.1,18.3C487.6,96.6,480,104.1,469.5,104.1z M469.5,72.7c-7.5,0-12.8,5.5-12.8,13.4c0,7.5,5.3,13,12.7,13
			c7.5,0,12.8-5.3,12.9-13C482.3,78.3,477,72.7,469.5,72.7z"/>
	</g>
</g>
</svg>
