<?xml version="1.0" encoding="utf-8"?>
<!-- Generator: Adobe Illustrator 23.0.2, SVG Export Plug-In . SVG Version: 6.00 Build 0)  -->
<svg version="1.1"
	 id="Livello_1" shape-rendering="geometricPrecision" image-rendering="optimizeQuality" text-rendering="geometricPrecision"
	 xmlns="http://www.w3.org/2000/svg" xmlns:xlink="http://www.w3.org/1999/xlink" x="0px" y="0px" viewBox="0 0 2500 696"
	 style="enable-background:new 0 0 2500 696;" xml:space="preserve">
<style type="text/css">
	.st0{fill-rule:evenodd;clip-rule:evenodd;fill:#80CBC4;}
</style>
<path class="st0" d="M467.6,172.3H320.3L233.9,378l-86.4-205.7H0.2c53.5,127.5,107,255,160.6,382.4L101.5,696h147.3
	C322.5,520.5,394.4,346.7,467.6,172.3L467.6,172.3z M2341.2,1.1h158.6l-143.4,346.5h-158.6L2341.2,1.1z M2236.8,381
	c49.4,0,89.4,40,89.4,89.4s-40,89.4-89.4,89.4s-89.4-40-89.4-89.4C2147.4,421,2187.4,381,2236.8,381z M1925,161.9
	c111,0,201,90,201,201c0,111-90,201-201,201c-111,0-201-90-201-201C1724,251.9,1814,161.9,1925,161.9z M1925,284.4
	c43.4,0,78.5,35.1,78.5,78.5s-35.1,78.5-78.5,78.5c-43.4,0-78.5-35.1-78.5-78.5S1881.7,284.4,1925,284.4z M1493.4,161.9
	c111,0,201,90,201,201c0,111-90,201-201,201c-111,0-201-90-201-201C1292.4,251.9,1382.4,161.9,1493.4,161.9L1493.4,161.9z
	 M1493.4,284.4c43.4,0,78.5,35.1,78.5,78.5s-35.1,78.5-78.5,78.5c-43.4,0-78.5-35.1-78.5-78.5S1450,284.4,1493.4,284.4L1493.4,284.4
	z M899.9,0h132.9v206.7c0,0,23.3-44.8,100.1-44.8c76.8,0,126.1,33.8,127.1,172.2v225.7h-132.9V334.1c0-26-21.1-47.1-47.1-47.1
	c-26.6,0-47.8,21.9-47.1,48.5l0,224.3H899.9L899.9,0L899.9,0z M718.8,172.3h132.9v387.5H718.8v-36.5C689.1,548.8,652,564,611.7,564
	c-98,0-177.5-90-177.5-201c0-111,79.5-201,177.5-201c40.2,0,77.3,15.2,107.1,40.7V172.3L718.8,172.3z M644,284.4
	c43.4,0,78.5,35.1,78.5,78.5s-35.1,78.5-78.5,78.5s-78.5-35.1-78.5-78.5S600.6,284.4,644,284.4L644,284.4z"/>
</svg>
