<?xml version="1.0" encoding="utf-8"?>
<!-- Generator: Adobe Illustrator 23.0.2, SVG Export Plug-In . SVG Version: 6.00 Build 0)  -->
<svg version="1.1" id="Livello_1" xmlns:svg="http://www.w3.org/2000/svg"
	 xmlns="http://www.w3.org/2000/svg" xmlns:xlink="http://www.w3.org/1999/xlink" x="0px" y="0px" viewBox="0 0 1292.3 365.6"
	 style="enable-background:new 0 0 1292.3 365.6;" xml:space="preserve">
<style type="text/css">
	.st0{fill:#80CBC4;}
</style>
<g>
	<title>Layer 1</title>
	<path id="svg_12" class="st0" d="M86.3,58.2h187.4l-17.3,51.6h-49v197.3H147V109.8H86.3L86.3,58.2L86.3,58.2z M583,58.2v51.6h60.7
		v197.3h60.3V109.8h49l17.4-51.6L583,58.2L583,58.2z M314.5,117c16.1,0,29.2-13.1,29.2-29.2s-13.1-29.2-29.2-29.2
		s-29.2,13.1-29.2,29.2S298.4,117,314.5,117L314.5,117z M285.3,307.1h59.2V137.6h-59.2V307.1z M557.3,115.5h-69.2l-59.6,59.7V58.4
		h-58.8l-0.2,248.7h59.4v-64.8l18.5-16.7l57.6,81.5h63.4l-83.4-119.3L557.3,115.5L557.3,115.5z M1124.8,187.9l72.3-72.3H1128
		l-59.6,59.7V58.4h-58.8l-0.2,248.7h59.4v-64.8l18.5-16.7l57.6,81.5h63.4L1124.8,187.9z M972.7,206.4c0,56.2-46.2,101.8-103.2,101.8
		s-103.1-45.6-103.1-101.8s46.2-101.8,103.1-101.8S972.7,150.2,972.7,206.4L972.7,206.4z M920.1,206.4c0-27.9-22.7-50.6-50.6-50.6
		c-27.9,0-50.6,22.7-50.6,50.6c0,27.9,22.7,50.6,50.6,50.6l0,0C897.5,257,920.1,234.4,920.1,206.4
		C920.2,206.4,920.2,206.4,920.1,206.4L920.1,206.4z"/>
</g>
</svg>
