<?xml version="1.0" encoding="utf-8"?>
<!-- Generator: Adobe Illustrator 23.0.2, SVG Export Plug-In . SVG Version: 6.00 Build 0)  -->
<svg version="1.1" id="Livello_1" xmlns="http://www.w3.org/2000/svg" xmlns:xlink="http://www.w3.org/1999/xlink" x="0px" y="0px"
	 viewBox="0 0 868 178" style="enable-background:new 0 0 868 178;" xml:space="preserve">
<style type="text/css">
	.st0{fill-rule:evenodd;clip-rule:evenodd;fill:#80CBC4;}
</style>
<g transform="translate(-.664 -.216)">
	<path class="st0" d="M152,111.3l18.4-48.5c1.1-2.9,5.1-2.9,6.2,0l18.4,48.4L152,111.3L152,111.3 M193.8,21.6
		c-1.3-3.5-4.6-5.8-8.4-5.8h-23.9c-3.7,0-7,2.3-8.4,5.8l-50.6,133.5c-0.7,1.9-0.4,4,0.7,5.6c1.1,1.6,3,2.6,5,2.6h19.7
		c2.5,0,4.8-1.6,5.7-3.9l5.3-13.9c0.9-2.4,3.2-3.9,5.7-3.9h57.8c2.5,0,4.8,1.6,5.7,3.9l5.3,13.9c0.9,2.3,3.1,3.9,5.7,3.9h19.7
		c2,0,3.9-1,5-2.6c1.1-1.6,1.4-3.7,0.7-5.6L193.8,21.6L193.8,21.6 M861.6,15.9h-19.4c-5.1,0-9.8,2.9-12,7.5l-38.5,80.6l-38.5-80.6
		c-2.2-4.6-6.9-7.5-12-7.5h-19.4c-3.5,0-6.4,2.9-6.4,6.4v134.7c0,3.5,2.8,6.4,6.4,6.4h18.6c1.7,0,3.3-0.7,4.5-1.9
		c1.2-1.2,1.9-2.8,1.9-4.5V87.1l35.3,72.7c1.1,2.2,3.3,3.6,5.7,3.6h7.7c2.4,0,4.7-1.4,5.7-3.6l35.3-72.7v69.9c0,3.5,2.9,6.4,6.4,6.4
		h18.6c3.5,0,6.4-2.9,6.4-6.4V22.2C868,18.7,865.1,15.9,861.6,15.9L861.6,15.9 M97.6,79.3H35.9V46.2h78c2.7,0,5-1.7,5.9-4.2
		l6.4-17.8c0.7-1.9,0.4-4.1-0.8-5.7c-1.2-1.7-3.1-2.7-5.1-2.7H11.8c-3.5,0-6.3,2.8-6.3,6.3V157c0,3.5,2.8,6.3,6.3,6.3h17.8
		c3.5,0,6.3-2.8,6.3-6.3v-47.4h55.3c2.7,0,5-1.7,5.9-4.2l6.4-17.8c0.7-1.9,0.4-4.1-0.8-5.7C101.5,80.3,99.6,79.3,97.6,79.3
		L97.6,79.3 M467.3,134.2h-25.8V44.9h25.8c27.3,0,45.8,18.2,45.8,44.7C513.1,116.1,494.6,134.2,467.3,134.2 M466.4,15.9h-50.9
		c-3.5,0-6.3,2.8-6.3,6.3V157c0,3.5,2.8,6.3,6.3,6.3h50.9c46.1,0,77.9-32,77.9-73.3v-0.8C544.3,47.9,512.5,15.9,466.4,15.9
		L466.4,15.9 M381,16.1h-18.8c-3.5,0-6.3,2.8-6.3,6.2v89.2l-62.5-91.8c-1.6-2.4-4.4-3.9-7.3-3.9h-23.7c-3.5,0-6.2,2.8-6.2,6.3v134.9
		c0,3.5,2.8,6.3,6.3,6.3h18.9c3.5,0,6.3-2.8,6.3-6.3V69.4l61.5,90c1.6,2.4,4.4,3.9,7.3,3.9h24.7c3.5,0,6.3-2.8,6.3-6.2V22.3
		c0-1.7-0.7-3.3-1.8-4.4C384.3,16.7,382.7,16.1,381,16.1L381,16.1 M671.8,90.4c0,24-19.3,43.4-43.2,43.4
		c-23.9,0-43.3-19.5-43.3-43.4v-1.6c0-24,19.4-43.4,43.3-43.4c23.9,0,43.2,19.4,43.2,43.4L671.8,90.4L671.8,90.4 M628.6,15.1
		c-40.7,0-73.6,33-73.6,73.7v1.6c0,40.7,33,73.7,73.6,73.7c40.7,0,73.6-33,73.6-73.7v-1.6C702.2,48.1,669.2,15.1,628.6,15.1
		L628.6,15.1"/>
</g>
</svg>
