<?xml version="1.0" encoding="utf-8"?>
<!-- Generator: Adobe Illustrator 23.0.2, SVG Export Plug-In . SVG Version: 6.00 Build 0)  -->
<svg version="1.1" id="Livello_1" xmlns="http://www.w3.org/2000/svg" xmlns:xlink="http://www.w3.org/1999/xlink" x="0px" y="0px"
	 viewBox="0 0 2500 972" style="enable-background:new 0 0 2500 972;" xml:space="preserve">
<style type="text/css">
	.st0{fill:#80CBC4;}
</style>
<g>
	<path class="st0" d="M2232.5,381c-14.6,0-25,6.1-31.2,18.4c-7.4,15.2-10.5,37-9.2,65.3l0.4,6.4c0.2,4.5,0.4,8.9,0.4,13.2h80.1
		v-19.6c0-26.7-1.9-45.7-5.6-56.9C2261.7,389.9,2250,381,2232.5,381z"/>
	<path class="st0" d="M1934.5,388.8c-22.6,0-36.5,23.8-41.7,71.4c-1.1,9.6-1.5,43.7-1.5,102.3c0,45.2,0.9,73.4,2.8,84.6
		c5.4,34.5,18.8,51.8,40.4,51.8c20.1,0,32.3-21.1,36.7-63.4c1.1-8.8,1.6-39.2,1.6-91.1c0-53.7-0.4-84.4-1.3-91.9
		C1967.2,410.1,1954.8,388.8,1934.5,388.8z"/>
	<path class="st0" d="M2499.6,724.8V247.2C2499.6,110.7,2388.9,0,2252.4,0h-978.3c-136.5,0-247.2,110.7-247.2,247.2v477.6
		c0,136.5,110.7,247.2,247.2,247.2h978.3C2388.9,972,2499.6,861.3,2499.6,724.8L2499.6,724.8z M1463,259.2h-102v516.1h-88.5V259.2
		h-102.1V157.1H1463V259.2z M1739.7,775.2h-81.1v-46.1c-17.1,39-42.1,58.5-75.1,58.5c-53.1,0-79.7-37.3-79.7-111.9V311h79.8v303.3
		c0,24.9,1.4,42.7,4.3,53.4c5.1,18.5,15.4,27.7,30.7,27.7c16.6,0,27.7-10,33.2-30.1c3-11.5,4.6-30.8,4.6-57.8V311h83.2V775.2z
		 M2045.5,700.1c-13.6,58.3-41.4,87.4-83.3,87.4c-35,0-59.2-20.3-72.5-60.9v48.5l-78.6,0v0l0,0h0V157.1h82.7v193.2
		c13.8-34.4,37.2-51.6,70.1-51.6c42,0,69.5,30,82.5,89.8c6.6,30.2,9.9,82.5,9.9,156.8C2056.3,617.5,2052.7,669.1,2045.5,700.1z
		 M2355.9,557.9h-162.4c-0.6,5.1-0.9,15-0.9,29.7c0,34.5,1.4,59.2,4.3,73.9c6,30.3,18.3,45.4,37,45.4c27.8,0,41.7-30.3,41.7-91l0,0
		h77.7c0,2.1,0.1,5.2,0.3,9c0.2,3.9,0.3,6.9,0.3,9c0,53.5-9.9,92.4-29.6,116.9c-19.8,24.4-50.4,36.7-92,36.7
		c-43,0-74-14.9-92.9-44.5c-15-23.6-24.6-57.9-28.8-103.1c-1.9-19.8-2.8-57.1-2.8-111.9c0-44.1,0.9-75.5,2.8-94.2
		c3.7-38,11.8-66.8,24.4-86.6c20.6-32.3,53.7-48.5,99.4-48.5c44,0,76.2,17.5,96.6,52.5c16.5,28.3,24.7,85.5,24.7,171.5V557.9z"/>
</g>
<g>
	<path class="st0" d="M125.8,778.7V515.2L0.4,157.1h98.7L171.5,391l71.4-233.9h95.9L215.6,515.1v263.6L125.8,778.7L125.8,778.7z
		 M369.5,545.5c0-80.4,6.1-137.4,18.3-171.1c18.2-50,54.2-75,108-75c53.7,0,89.9,25,108.3,75c12.2,33.4,18.3,90.4,18.3,171.1
		c0,80.6-6.1,137.7-18.3,171c-18.4,49.7-54.5,74.6-108.3,74.6c-53.8,0-89.8-25-108-75C375.6,682.8,369.5,625.9,369.5,545.5
		L369.5,545.5z M454.8,551.6c0,57.8,0.3,89.2,0.9,94.3c4.3,41.7,17.5,62.5,39.5,62.5c22,0,35.5-17.9,40.4-53.6
		c1-7.8,1.5-37,1.5-87.5v-45.5c0-47.3-0.6-75.8-1.8-85.5c-5.2-35.5-18.3-53.2-39.5-53.2c-20.6,0-33.4,15.6-38.6,46.8
		c-1.6,9.9-2.5,36.1-2.5,78.6L454.8,551.6L454.8,551.6z M920.5,311.9v466.8h-81.5v-46.4c-17.2,39.2-42.4,58.8-75.5,58.8
		c-53.4,0-80.2-37.5-80.2-112.5V311.9h80.3v305c0,25,1.4,42.9,4.3,53.6c5.2,18.6,15.5,27.9,30.9,27.9c16.7,0,27.8-10.1,33.4-30.3
		c3-11.6,4.6-30.9,4.6-58.1V311.9H920.5L920.5,311.9z"/>
</g>
</svg>
