<?xml version="1.0" encoding="utf-8"?>
<!-- Generator: Adobe Illustrator 23.0.2, SVG Export Plug-In . SVG Version: 6.00 Build 0)  -->
<svg version="1.1" id="Livello_1" xmlns:svg="http://www.w3.org/2000/svg"
	 xmlns="http://www.w3.org/2000/svg" xmlns:xlink="http://www.w3.org/1999/xlink" x="0px" y="0px" viewBox="0 0 152 34.5"
	 style="enable-background:new 0 0 152 34.5;" xml:space="preserve">
<style type="text/css">
	.st0{fill:#80CBC4;}
</style>
<g>
	<title>Layer 1</title>
	<path id="svg_27" class="st0" d="M7,20.5l-2.2-0.2c-1.7-0.1-2.3-0.8-2.3-2c0-1.4,1-2.2,3-2.2c1.3-0.1,2.6,0.3,3.6,1.1l1.3-1.3
		c-1.4-1-3.1-1.5-4.8-1.4c-2.9,0-4.9,1.5-4.9,3.9c0,2.2,1.4,3.4,4,3.6l2.2,0.2c1.6,0.1,2.2,0.8,2.2,2c0,1.6-1.4,2.4-3.6,2.4
		c-1.6,0.1-3.1-0.5-4.2-1.6L0,26.3c1.5,1.4,3.5,2,5.5,1.9c3.2,0,5.5-1.5,5.5-4.1S9.4,20.7,7,20.5z M22.8,14.4
		c-2.2,0-3.5,0.4-4.7,1.9l1.3,1.3c0.8-1.1,2.1-1.7,3.4-1.5c2.5,0,3.4,1,3.4,2.9v1.3h-4c-3,0-4.6,1.5-4.6,3.9c0,1,0.3,2,1,2.7
		c0.8,0.9,1.9,1.2,3.8,1.2c1.4,0.1,2.9-0.4,3.9-1.4V28h2v-9.1C28.2,16,26.4,14.4,22.8,14.4z M26.2,23.3c0.1,0.8-0.1,1.7-0.7,2.3
		c-0.8,0.7-1.9,1-3,0.9c-2.1,0-3.1-0.7-3.1-2.3c0-1.6,1-2.4,3-2.4h3.8V23.3z M35.9,16.2c1.2,0,2.4,0.5,3.1,1.5l1.3-1.3
		c-1.1-1.3-2.7-2.1-4.4-2c-3.4,0-5.9,2.3-5.9,6.9s2.6,6.9,5.9,6.9c1.7,0.1,3.3-0.7,4.4-2L39,24.9c-0.7,1-1.9,1.5-3.1,1.5
		c-1.2,0.1-2.4-0.5-3.1-1.5c-0.7-1.1-1-2.3-0.9-3.6c-0.1-1.3,0.2-2.5,0.9-3.6C33.5,16.7,34.7,16.1,35.9,16.2z M52.7,14.6h-2.4
		l-6.1,5.9V8.6h-2V28h2v-4.9l2.4-2.4l4.5,7.3h2.4l-5.6-8.6C47.9,19.4,52.7,14.6,52.7,14.6z M61.9,14.4c-1.6,0-3.2,0.5-4.3,1.7
		c-1.3,1.3-1.6,3-1.6,5.4c0,2.5,0.3,4.1,1.6,5.4c1.2,1.1,2.7,1.7,4.3,1.7c1.6,0.1,3.2-0.5,4.3-1.7c1.3-1.3,1.6-2.9,1.6-5.4
		s-0.3-4-1.6-5.4C65.1,14.9,63.5,14.3,61.9,14.4z M63.6,24.9c-0.9,0.8-2.3,0.8-3.2,0c-0.7-0.7-0.8-2-0.8-3.4s0.1-2.7,0.8-3.4
		c0.9-0.8,2.3-0.8,3.2,0c0.7,0.7,0.8,2,0.8,3.4C64.4,23,64.3,24.2,63.6,24.9z M77.2,14.5l-2.8,8.6l-2.8-8.6h-3.7l5.2,14h2.7l5.1-14
		C80.9,14.5,77.2,14.5,77.2,14.5z M86.8,14.5c-3.6,0-6.1,2.5-6.1,7c0,5.7,3.2,7.2,6.5,7.2c2,0.1,4-0.7,5.3-2.2l-2.1-2
		c-0.8,0.8-2,1.3-3.2,1.2c-1.6,0.1-2.9-1.1-3.1-2.7v-0.4h8.7V21c0.1-3.8-2.1-6.6-6-6.6C86.8,14.4,86.8,14.5,86.8,14.5z M84.1,20.2
		l0.3-1.5c0.4-0.9,1.3-1.4,2.3-1.4s1.9,0.5,2.3,1.4l0.3,1.5H84.1L84.1,20.2z M97.4,15.9v-1.3H94v14h3.5v-8.4c0-1.3,0.8-2.4,2.1-2.6
		h0.2c0.7,0,1.4,0.3,1.8,0.8l2.6-2.6c-0.8-0.9-2-1.4-3.2-1.3c-1.3,0-2.6,0.4-3.5,1.4H97.4L97.4,15.9z M105,13.1v15.4h3.5v-11h2.6
		v-2.7h-2.6v-1.5c0-0.6,0.3-1.2,1-1.3h1.5V9h-2c-2.2-0.1-3.9,1.6-4,3.8c0,0,0,0,0,0C105,12.8,105,13.1,105,13.1z M125.3,14.4
		c-1.6,0-3.2,0.5-4.3,1.7c-1.3,1.3-1.6,3-1.6,5.4c0,2.5,0.3,4.1,1.6,5.4c1.2,1.1,2.7,1.7,4.3,1.7c1.6,0.1,3.2-0.5,4.3-1.7
		c1.3-1.3,1.6-2.9,1.6-5.4s-0.3-4-1.6-5.4C128.5,14.9,126.9,14.3,125.3,14.4z M127,24.9c-0.9,0.8-2.3,0.8-3.2,0
		c-0.7-0.7-0.8-2-0.8-3.4s0.1-2.7,0.8-3.4c0.9-0.8,2.3-0.8,3.2,0c0.7,0.7,0.8,2,0.8,3.4C127.8,23,127.7,24.2,127,24.9z M147.7,14.5
		l-2.3,8.6l-2.9-8.6H140l-2.8,8.7l-2.3-8.6h-3.7l4.3,14h2.9l2.9-8.8l2.9,8.8h3l4.3-14L147.7,14.5L147.7,14.5L147.7,14.5z
		 M116.5,24.3V9.1H113v15.4c-0.1,2.1,1.5,3.9,3.6,4c0,0,0,0,0,0h2.5v-3h-1.3c-0.6,0.1-1.1-0.2-1.3-0.8
		C116.5,24.7,116.5,24.3,116.5,24.3z M17.7,14.9H14v-4.4h-2v13.9c0,2,1.1,3.6,3.4,3.6h1.4v-1.7h-1c-1.3,0-1.8-0.7-1.8-2v-7.7h1.9
		C15.9,16.6,17.7,14.9,17.7,14.9z"/>
</g>
</svg>
