<?xml version="1.0" encoding="utf-8"?>
<!-- Generator: Adobe Illustrator 23.0.2, SVG Export Plug-In . SVG Version: 6.00 Build 0)  -->
<svg version="1.1" id="Layer_1" xmlns="http://www.w3.org/2000/svg" xmlns:xlink="http://www.w3.org/1999/xlink" x="0px" y="0px"
	 viewBox="0 0 475 177.8" style="enable-background:new 0 0 475 177.8;" xml:space="preserve">
<style type="text/css">
	.st0{fill:#80CBC4;}
</style>
<path class="st0" d="M463.6,153.9c-4.8,0-9.6-0.1-14.3,0.1c-2,0.1-2.4-0.6-2.4-2.5c0.1-30.7,0-61.4,0-92.2c0-11,0-22.1,0-33.1
	c0-1.8,0.4-2.5,2.4-2.5c4.8,0.2,9.6,0.1,14.3,0.1C463.6,67.2,463.6,110.6,463.6,153.9z M110.2,84.3c9.7,0,19.5,0,29.2,0
	c1.3,0,2.4,0,2.5,1.7c1.8,17.2-0.8,33.4-11.9,47.3s-25.7,21.4-43.4,23.1c-13.5,1.3-26.5-0.1-38.5-6.5c-20.8-11-33.8-28-36.6-51.8
	C9,77.3,13.8,58.5,28.4,42.8c15.6-16.9,35-23.7,57.7-21.5c14.5,1.4,27.6,6.4,38.3,16.7c2.3,2.2,2.3,2.3,0,4.5
	c-2.9,2.9-5.8,5.7-8.6,8.6c-0.9,0.9-1.4,0.9-2.3,0C99,36.9,81.6,33.7,62.9,39.4c-18.7,5.6-30.1,19-33.8,38.2
	c-3,15.8-0.8,30.8,9.3,43.8c11.9,15.3,27.9,21,46.9,19.1c10-1,19-4.6,26.6-11.4c8-7.2,12.1-16.4,13.7-27c0.3-2.1-0.7-2.2-2.3-2.2
	c-14.1,0-28.3,0-42.4,0.1c-1.9,0-2.6-0.4-2.5-2.4c0.2-3.6,0.1-7.3,0-11c-0.1-1.8,0.5-2.4,2.3-2.3C90.5,84.4,100.4,84.3,110.2,84.3z
	 M176.6,77.1c7.2-9.7,16.6-15.2,28.7-15c12.1,0.2,21.5,5.5,27.1,16.9c2.3-3.2,4.7-6.2,7.6-8.7c10.3-9,27.7-11,39.7-4.5
	c8.9,4.8,13.1,12.9,14.8,22.6c0.6,3.5,0.8,7.1,0.8,10.7c0,17.5,0,35.1,0.1,52.6c0,1.9-0.5,2.5-2.4,2.4c-3.9-0.2-7.8-0.2-11.7,0
	c-2.1,0.1-2.9-0.4-2.9-2.7c0.1-16.5,0.1-33,0.1-49.4c0-3.8-0.1-7.6-1-11.4c-1.9-8.2-7-12.5-15.4-13c-13.1-0.8-23.3,7.6-25.5,21.1
	c-0.4,2.5-0.5,5-0.5,7.5c0,15.2,0,30.4,0,45.5c0,1.8-0.3,2.4-2.2,2.3c-4.1-0.2-8.3-0.2-12.4,0c-1.9,0.1-2.2-0.7-2.2-2.4
	c0.1-16.5,0-33,0-49.4c0-4.1-0.1-8.1-1.1-12.1c-2-7.9-7-12.1-15.2-12.7c-13.6-0.9-24.2,8.2-25.8,22.2c-0.3,2.5-0.4,5-0.4,7.5
	c0,14.5,0,29.1,0,43.6c0,3.7,0.5,3.1-3.3,3.2c-3.7,0-7.5-0.1-11.2,0c-1.6,0-2.2-0.3-2.2-2.1c0.1-28.3,0.1-56.7,0-85
	c0-1.6,0.5-2.1,2.1-2.1c4,0.1,8,0.1,11.9,0c1.6,0,2.2,0.4,2.1,2c-0.1,2.6-0.1,5.2,0,7.8C176.1,75.4,175.8,76.2,176.6,77.1z
	 M371.9,141.8c-1.2,0.2-1.4,0.8-1.8,1.3c-8.1,11-19,15.2-32.4,13.4c-10.2-1.3-18.5-5.9-24.3-14.5c-9.9-15-3.9-34.8,13-41.8
	c14.3-5.9,28.9-5.5,43.3,0.4c1.6,0.7,2.1,0.8,2.2-1.2c0.6-13.8-11.4-21.8-21.4-22.4c-9.4-0.5-17.2,2.8-22.9,10.4
	c-0.9,1.2-1.5,1.2-2.7,0.4c-3.7-2.4-7.5-4.9-11.3-7.1c-1.8-1-1.4-1.8-0.4-3.1c5.6-7.1,12.8-11.9,21.6-14c11.1-2.6,22.1-2.4,32.7,2.2
	c12.2,5.3,18.8,14.9,20,28c1.1,11.7,0.3,23.5,0.4,35.3c0.1,7.5,0,15.1,0.1,22.6c0,1.7-0.3,2.4-2.2,2.4c-4-0.2-8-0.1-11.9,0
	c-1.5,0-2-0.4-1.9-1.9C372,148.7,371.9,145.3,371.9,141.8z M351.3,109.6c-7.4,0-13.7,1.3-19.1,5.6c-4.9,3.9-7.1,8.9-5.4,15
	c1.7,6.2,6.5,9.4,12.3,10.9c14.3,3.8,30.3-7.2,32.5-21.8c0.4-2.8-0.3-4.3-2.7-5.6C363.2,110.7,357,109.8,351.3,109.6z M425,109.4
	c0,13.9-0.1,27.8,0.1,41.6c0,2.6-0.8,3.1-3.1,3c-4-0.2-8-0.1-11.9,0c-1.5,0-1.9-0.5-1.9-2c0-28.4,0-56.8,0-85.2c0-1.7,0.6-2,2.1-2
	c4.2,0.1,8.4,0.1,12.7,0c1.8-0.1,2.1,0.6,2.1,2.2C425,81.2,425,95.3,425,109.4z M416.7,22.4c6.5,0,11.7,5.2,11.8,11.7
	c0,6.6-5.2,11.8-11.9,11.9c-6.4,0-11.7-5.3-11.8-11.8C404.7,27.7,410.1,22.4,416.7,22.4z"/>
</svg>
