<svg width="700" height="161.73" xmlns="http://www.w3.org/2000/svg" xmlns:svg="http://www.w3.org/2000/svg" xmlns:xlink="http://www.w3.org/1999/xlink">
 <linearGradient y2="0.00001" x2="0.5" y1="1" x1="0.5" id="a">
  <stop stop-color="#d14427" offset="0"/>
  <stop stop-color="#e55225" offset="1"/>
 </linearGradient>
 <defs>
  <path d="m179.922,78.207c0,28.895 -23.506,52.4 -52.404,52.4c-28.893,0 -52.396,-23.508 -52.396,-52.4c0,-28.891 23.506,-52.396 52.396,-52.396c28.898,-0.001 52.404,23.505 52.404,52.396z" id="b"/>
 </defs>
 <clipPath id="c">
  <use id="svg_1" xlink:href="#b"/>
 </clipPath>
 <g class="layer">
  <title>Layer 1</title>
  <path id="svg_2" fill="#fff" d="m183.855,77.948c0,32.201 -25.321,58.306 -56.557,58.306c-31.234,0 -56.555,-26.104 -56.555,-58.306s25.321,-58.305 56.555,-58.305c31.236,0.001 56.557,26.104 56.557,58.305z"/>
  <path id="svg_3" fill="url(#a)" d="m179.717,78.348c0,28.828 -23.369,52.201 -52.199,52.201s-52.199,-23.373 -52.199,-52.201s23.369,-52.199 52.199,-52.199s52.199,23.371 52.199,52.199zm7.461,0c0,32.947 -26.713,59.66 -59.66,59.66c-32.947,0 -59.66,-26.713 -59.66,-59.66c0,-32.947 26.713,-59.66 59.66,-59.66c32.947,0 59.66,26.712 59.66,59.66zm-4.922,0c0,-30.229 -24.51,-54.736 -54.738,-54.736c-30.227,0 -54.738,24.508 -54.738,54.736s24.512,54.736 54.738,54.736c30.228,0 54.738,-24.508 54.738,-54.736z"/>
  <g id="svg_4" clip-path="url(#c)">
   <path id="svg_5" fill="#d5d7d8" d="m148.482,154.541c-1.801,-8.285 -12.262,-27.039 -16.229,-34.969c-3.965,-7.93 -7.939,-19.11 -6.129,-26.322c0.327,-1.312 -3.436,-11.307 -2.354,-12.014c8.416,-5.49 10.632,0.598 14.001,-1.863c1.738,-1.273 4.09,1.047 4.693,-1.059c2.158,-7.568 -3.006,-20.76 -8.768,-26.527c-1.885,-1.879 -4.773,-3.059 -8.031,-3.686c-1.254,-1.713 -3.275,-3.361 -6.138,-4.879c-3.188,-1.697 -10.121,-3.938 -13.717,-4.535c-2.492,-0.41 -3.055,0.287 -4.119,0.461c0.992,0.088 5.699,2.414 6.615,2.549c-0.916,0.619 -3.607,-0.029 -5.324,0.742c-0.865,0.391 -1.512,1.877 -1.506,2.58c4.91,-0.496 12.574,-0.016 17.1,2c-3.602,0.41 -9.08,0.867 -11.436,2.105c-6.848,3.609 -9.873,12.035 -8.07,22.133c1.804,10.075 9.738,46.849 12.262,59.129c2.525,12.263 -5.408,20.189 -10.455,22.354l5.408,0.363l-1.801,3.967c6.484,0.719 13.695,-1.441 13.695,-1.441c-1.438,3.965 -11.176,5.412 -11.176,5.412s4.691,1.438 12.258,-1.447c7.575,-2.883 12.261,-4.688 12.261,-4.688l3.604,9.373l6.854,-6.846l2.883,7.211c0.012,-0.001 5.422,-1.808 3.619,-10.103z"/>
   <path id="svg_6" fill="#fff" d="m150.66,152.859c-1.795,-8.289 -12.256,-27.043 -16.227,-34.976c-3.969,-7.935 -7.934,-19.112 -6.129,-26.321c0.334,-1.309 0.34,-6.668 1.428,-7.379c8.41,-5.494 7.812,-0.184 11.186,-2.645c1.74,-1.27 3.133,-2.805 3.738,-4.912c2.164,-7.572 -3.006,-20.76 -8.773,-26.529c-1.879,-1.879 -4.768,-3.062 -8.025,-3.686c-1.252,-1.717 -3.271,-3.361 -6.131,-4.881c-5.391,-2.863 -12.074,-4.006 -18.266,-2.883c0.99,0.09 3.256,2.137 4.168,2.273c-1.381,0.936 -5.053,0.816 -5.029,2.896c4.916,-0.492 10.303,0.285 14.834,2.297c-3.602,0.41 -6.955,1.299 -9.311,2.543c-6.854,3.602 -8.656,10.812 -6.854,20.914c1.807,10.096 9.742,46.868 12.256,59.127c2.527,12.258 -5.402,20.188 -10.449,22.352l5.408,0.359l-1.801,3.973c6.484,0.718 13.695,-1.442 13.695,-1.442c-1.438,3.972 -11.176,5.405 -11.176,5.405s4.686,1.443 12.258,-1.444c7.578,-2.883 12.268,-4.685 12.268,-4.685l3.602,9.373l6.854,-6.85l2.889,7.211c-0.009,0.006 5.396,-1.799 3.587,-10.09z"/>
   <path id="svg_7" fill="#2d4f8e" d="m109.211,70.074a3.786,3.786 0 0 1 3.789,-3.787a3.786,3.786 0 0 1 3.785,3.787a3.785,3.785 0 0 1 -3.785,3.787a3.784,3.784 0 0 1 -3.789,-3.787z"/>
   <path id="svg_8" fill="#fff" d="m113.697,68.812a0.982,0.982 0 1 1 1.964,0a0.985,0.985 0 0 1 -0.984,0.984a0.984,0.984 0 0 1 -0.98,-0.984z"/>
   <path id="svg_9" fill="#2d4f8e" d="m135.057,67.828a3.255,3.255 0 0 1 3.252,-3.25a3.254,3.254 0 1 1 -3.252,3.25z"/>
   <path id="svg_10" fill="#fff" d="m138.914,66.746c0,-0.463 0.379,-0.842 0.838,-0.842c0.477,0 0.844,0.379 0.844,0.842a0.834,0.834 0 0 1 -0.844,0.842a0.84,0.84 0 0 1 -0.838,-0.842z"/>
   <linearGradient y2="0.50017" x2="1" y1="0.50017" x1="-0.00004" id="d">
    <stop stop-color="#6176b9" offset="0.006"/>
    <stop stop-color="#394a9f" offset="0.691"/>
   </linearGradient>
   <path id="svg_11" fill="url(#d)" d="m114.076,59.101s-2.854,-1.291 -5.629,0.453c-2.77,1.742 -2.668,3.523 -2.668,3.523s-1.473,-3.283 2.453,-4.891c3.93,-1.61 5.844,0.915 5.844,0.915z"/>
   <linearGradient y2="0.49995" x2="0.99987" y1="0.49995" x1="0" id="e">
    <stop stop-color="#6176b9" offset="0.006"/>
    <stop stop-color="#394a9f" offset="0.691"/>
   </linearGradient>
   <path id="svg_12" fill="url(#e)" d="m140.268,58.841s-2.051,-1.172 -3.643,-1.152c-3.268,0.043 -4.162,1.488 -4.162,1.488s0.549,-3.445 4.734,-2.754c2.266,0.377 3.071,2.418 3.071,2.418z"/>
  </g>
  <path id="svg_13" fill="#fdd20a" d="m124.59,84.678c0.379,-2.291 6.299,-6.625 10.49,-6.887c4.201,-0.264 5.51,-0.205 9.01,-1.043c3.508,-0.838 12.535,-3.088 15.033,-4.242c2.504,-1.156 13.102,0.572 5.631,4.738c-3.234,1.809 -11.945,5.131 -18.172,6.988c-6.219,1.861 -9.99,-1.777 -12.059,1.281c-1.646,2.432 -0.334,5.762 7.098,6.453c10.037,0.93 19.66,-4.52 20.719,-1.625c1.064,2.895 -8.625,6.508 -14.527,6.623c-5.891,0.111 -17.775,-3.896 -19.553,-5.137c-1.785,-1.239 -4.164,-4.13 -3.67,-7.149z"/>
  <g id="svg_14">
   <path id="svg_15" fill="#4c4c4c" d="m213.754,103.48671l0,-49.69163l18.00761,0c17.14501,0 24.95288,12.59563 24.95288,24.30846c0,12.63401 -7.71495,25.37711 -24.95288,25.37711l-18.00761,0.00606zm5.7251,-5.7251l12.28251,0c13.28248,0 19.22778,-9.90681 19.22778,-19.72878c0,-9.01997 -6.01802,-18.7288 -19.22778,-18.7288l-12.28251,0l0,38.45758zm59.91157,6.29681c-9.19976,0 -15.14506,-6.33721 -15.14506,-16.14503l0,-19.29445l5.36754,0l0,19.22374c0,7.06244 4.10898,11.28051 10.99365,11.28051c6.45438,-0.07071 11.13708,-5.02613 11.13708,-11.78151l0,-18.72274l5.36754,0l0,34.86778l-4.87664,0l-0.30706,-6.06449l-0.8323,1.04644c-2.89285,3.63627 -6.83012,5.51905 -11.70474,5.58975zm43.89986,0.07071c-9.07047,0 -18.22175,-5.59783 -18.22175,-18.07832c0,-10.81588 7.32304,-18.07832 18.22175,-18.07832c4.76957,0 8.96138,1.70097 12.46028,5.05441l-3.37365,3.50294c-2.37368,-2.21408 -5.61804,-3.47668 -8.9432,-3.47668c-7.61192,0 -12.92693,5.34531 -12.92693,12.99764c0,8.97956 6.4564,13.00168 12.85623,13.00168c3.59991,0 6.86851,-1.28481 9.23814,-3.61809l3.50698,3.50698c-3.5292,3.44435 -7.8402,5.18774 -12.81785,5.18774zm42.21506,-0.64241l-17.03996,-17.04198l0,17.04198l-5.29683,0l0,-49.61891l5.29683,0l0,30.01336l14.89456,-15.26223l6.94325,0l-16.43189,16.43189l18.4379,18.36518l0,0.07071l-6.80386,0zm13.40167,0l0,-49.69163l18.00559,0c17.14501,0 24.95692,12.59563 24.95692,24.30846c0,12.63401 -7.70889,25.37711 -24.95692,25.37711l-18.00559,0.00606zm5.72308,-5.7251l12.28251,0c13.28248,0 19.2298,-9.90681 19.2298,-19.72878c0,-9.01997 -6.01802,-18.7288 -19.2298,-18.7288l-12.28251,0l0,38.45758zm59.90955,6.29681c-9.20178,0 -15.14304,-6.33721 -15.14304,-16.14503l0,-19.29445l5.36552,0l0,19.22374c0,7.06244 4.111,11.28051 10.99163,11.28051c6.44832,-0.07071 11.1391,-5.02613 11.1391,-11.78151l0,-18.72274l5.36552,0l0,34.86778l-4.88068,0l-0.301,-6.06449l-0.8323,1.04644c-2.89487,3.63627 -6.83214,5.51905 -11.70474,5.58975zm43.9039,0.07071c-9.07047,0 -18.22377,-5.59783 -18.22377,-18.07832c0,-10.81588 7.32304,-18.07832 18.22377,-18.07832c4.76755,0 8.96542,1.70097 12.46028,5.05441l-3.37365,3.50294c-2.3757,-2.21408 -5.61804,-3.47668 -8.94522,-3.47668c-7.61192,0 -12.92491,5.34531 -12.92491,12.99764c0,8.97956 6.45842,13.00168 12.85421,13.00168c3.59991,0 6.86851,-1.28481 9.23814,-3.62011l3.40395,3.41001l-0.17777,0.18181l0.09899,0.09899c-3.49486,3.32113 -7.74323,5.00593 -12.63401,5.00593zm42.21304,-0.64241l-17.04198,-17.04198l0,17.04198l-5.29481,0l0,-49.61891l5.29481,0l0,30.01336l14.89456,-15.26223l6.94729,0l-16.43189,16.43189l18.43588,18.36518l0,0.07071l-6.80386,0zm34.91424,0.93129c-19.10455,0 -25.88215,-13.63601 -25.88215,-25.31045c-0.03838,-7.60586 2.53731,-14.39356 7.24021,-19.12475c4.6322,-4.65644 11.05628,-7.11699 18.57123,-7.11699a25.79731,25.79731 0 0 1 18.05609,7.28062l-3.24234,3.77566c-3.81202,-3.56152 -9.45834,-5.76349 -14.80567,-5.76349c-13.8461,0 -20.15907,10.8583 -20.15907,20.94693c0,9.92095 6.27256,19.94291 20.30048,19.94291c5.10896,0 9.87045,-1.74945 13.75924,-5.07461l0.17777,-0.14949l0,-12.24816l-15.61373,0l0,-5.00795l20.76107,0l0,19.48636c-5.35138,5.64834 -11.5997,8.36342 -19.16314,8.36342zm43.90794,-0.28888c-10.47851,0 -18.07832,-7.57152 -18.07832,-18.00761c0,-10.5977 7.6099,-18.29245 18.07832,-18.29245c10.68457,0 18.147,7.52102 18.147,18.29245c0,10.43609 -7.63212,18.00761 -18.147,18.00761zm0.07071,-31.43352c-7.5291,0 -12.7835,5.52309 -12.7835,13.42591c0,7.53314 5.34531,13.00168 12.7128,13.00168c7.49273,0 12.77946,-5.34531 12.85219,-12.99764c0,-7.78363 -5.37562,-13.42995 -12.78148,-13.42995z"/>
  </g>
  <g id="svg_16">
   <path id="svg_17" fill="#65bc46" d="m129.133,115.975s-14.1,-7.521 -14.33,-4.47c-0.238,3.056 0,15.509 1.643,16.451c1.646,0.938 13.395,-6.108 13.395,-6.108l-0.708,-5.873zm5.402,-0.474s9.635,-7.285 11.754,-6.815c2.111,0.479 2.582,15.511 0.701,16.225c-1.881,0.695 -12.908,-3.816 -12.908,-3.816l0.453,-5.594z"/>
   <path id="svg_18" fill="#43a244" d="m125.719,116.771c0,4.931 -0.708,7.049 1.41,7.517c2.111,0.473 6.105,0 7.518,-0.938c1.41,-0.939 0.232,-7.281 -0.234,-8.465c-0.475,-1.171 -8.694,-0.228 -8.694,1.886z"/>
   <path id="svg_19" fill="#65bc46" d="m126.615,115.675c0,4.933 -0.707,7.05 1.41,7.519c2.109,0.475 6.104,0 7.518,-0.938c1.41,-0.941 0.232,-7.279 -0.238,-8.466c-0.471,-1.172 -8.69,-0.228 -8.69,1.885z"/>
  </g>
  <path id="svg_20" fill="#fff" d="m140.029,128.698a52.305,52.305 0 0 1 -12.916,1.612c-4.715,0 -9.282,-0.637 -13.631,-1.811l0.05,0.413a52.241,52.241 0 0 0 13.582,1.796c4.511,0 8.89,-0.573 13.068,-1.648l-0.153,-0.362z"/>
 </g>
</svg>