<?xml version="1.0" encoding="utf-8"?>
<!-- Generator: Adobe Illustrator 23.0.2, SVG Export Plug-In . SVG Version: 6.00 Build 0)  -->
<svg version="1.2" baseProfile="tiny" id="Layer_1" xmlns="http://www.w3.org/2000/svg" xmlns:xlink="http://www.w3.org/1999/xlink"
	 x="0px" y="0px" viewBox="0 0 800 177.805" xml:space="preserve">
<g>
	<path fill-rule="evenodd" fill="#D34C3D" d="M241.519,0c5.661,1.78,9.973,4.983,11.844,10.916c0.893,2.83,0.91,5.68,0.659,8.573
		c-0.888,0.091-0.808,0.903-1.05,1.45c-1.205,2.731-3.066,4.962-5.428,6.71c-8.02,5.939-16.091,11.805-24.144,17.698
		c-29.515,21.491-59.029,42.985-88.558,64.46c-0.882,0.641-1.602,1.646-2.879,1.602c-0.421-0.372-0.812-0.786-1.265-1.114
		C101.802,89.307,72.9,68.322,43.988,47.353c-0.626-0.454-1.184-1.164-2.126-0.97c-3.743-3.969-8.581-6.434-13.03-9.49
		c4.245,4.387,7.908,9.32,12.999,12.809c0.094,0.338,0.189,0.676,0.284,1.014c-0.06,0.805-0.171,1.608-0.171,2.411
		c-0.009,40.376-0.009,80.75,0,121.125c0,0.882-0.161,1.788,0.243,2.637c-0.13,0.306-0.261,0.611-0.392,0.917
		c-5.683,0-11.366,0-17.05,0c-1.291-0.41-2.616-0.736-3.867-1.244c-6.235-2.54-9.405-7.649-9.41-15.242
		c-0.029-48.353-0.045-96.704-0.035-145.056c0.001-1.434,0.067-2.88,0.502-4.312C14.436,3.717,22.115-0.563,31.101,1.336
		c1.857,0.617,3.574,1.496,5.164,2.65c31.473,22.883,62.961,45.745,94.402,68.673c1.488,1.085,2.376,1.146,3.89,0.029
		c18.145-13.377,36.344-26.679,54.546-39.978c14.463-10.567,28.947-21.104,43.422-31.655c1.212-0.352,2.424-0.703,3.637-1.056
		C237.947,0,239.733,0,241.519,0z"/>
	<path fill-rule="evenodd" fill="#E1E0E0" d="M131.964,111.409c1.277,0.044,1.997-0.961,2.879-1.602
		c29.528-21.475,59.042-42.969,88.558-64.46c0.031,1.053,0.09,2.107,0.09,3.159c0.005,43.1,0.004,86.199,0.004,129.298
		c-16.725,0-33.45,0-50.175,0c-0.011-1.136-0.907-1.706-1.614-2.314c-7.067-6.076-13.313-13.005-20.153-19.326
		c-8.327-7.695-16.209-15.87-24.388-23.73c-3.322-3.19-6.891-6.124-9.868-9.668c0.002-0.162,0.003-0.324,0.004-0.487
		C122.19,118.656,127.076,115.033,131.964,111.409z"/>
	<path fill-rule="evenodd" fill="#C5483A" d="M223.496,177.805c0-43.099,0.001-86.198-0.004-129.298c0-1.053-0.059-2.107-0.09-3.159
		c8.052-5.893,16.124-11.759,24.143-17.698c2.362-1.748,4.224-3.979,5.428-6.71c0.242-0.547,0.162-1.359,1.05-1.45
		c0.033,1.376,0.095,2.751,0.095,4.127c0.005,45.091,0.004,90.183,0.004,135.272c0,11.082-2.514,14.855-12.603,18.916
		C235.512,177.805,229.503,177.805,223.496,177.805z"/>
	<path fill-rule="evenodd" fill="#F1F1F1" d="M117.298,122.767c2.977,3.544,6.545,6.477,9.868,9.668
		c8.178,7.859,16.061,16.034,24.388,23.73c6.84,6.321,13.086,13.25,20.153,19.326c0.707,0.608,1.604,1.179,1.614,2.314
		c-43.842,0-87.684,0-131.526,0c0.131-0.306,0.262-0.611,0.392-0.918c0.7-0.023,1.149-0.486,1.677-0.873
		c8.788-6.436,17.599-12.842,26.395-19.266c12.25-8.948,24.475-17.933,36.753-26.842
		C110.388,127.456,113.496,124.607,117.298,122.767z"/>
	<path fill-rule="evenodd" fill="#787879" d="M788.57,153.936c-4.783,0.005-9.57-0.094-14.347,0.066
		c-2.01,0.067-2.368-0.65-2.364-2.474c0.051-30.725,0.035-61.449,0.035-92.176c0-11.024,0.039-22.051-0.037-33.075
		c-0.013-1.825,0.357-2.541,2.366-2.474c4.776,0.16,9.564,0.061,14.347,0.066C788.57,67.226,788.57,110.58,788.57,153.936z"/>
	<path fill-rule="evenodd" fill="#787879" d="M435.183,84.328c9.741,0,19.483,0.014,29.225-0.016
		c1.311-0.004,2.357,0.002,2.54,1.729c1.823,17.228-0.77,33.425-11.859,47.314c-11.085,13.884-25.692,21.444-43.418,23.101
		c-13.454,1.258-26.514-0.112-38.548-6.488c-20.845-11.042-33.764-28.023-36.644-51.782c-2.527-20.853,2.36-39.658,16.871-55.372
		c15.582-16.872,35.008-23.669,57.698-21.451c14.529,1.42,27.576,6.376,38.252,16.684c2.329,2.248,2.303,2.276,0.031,4.55
		c-2.869,2.87-5.77,5.711-8.592,8.627c-0.881,0.909-1.366,0.886-2.288-0.032c-14.403-14.334-31.851-17.463-50.554-11.825
		C369.204,45,357.79,58.355,354.08,77.571c-3.045,15.771-0.773,30.813,9.344,43.827c11.882,15.283,27.874,21.005,46.859,19.094
		c10.05-1.013,19.018-4.611,26.584-11.405c8.037-7.218,12.119-16.447,13.672-26.981c0.31-2.091-0.661-2.193-2.286-2.188
		c-14.126,0.044-28.251-0.006-42.377,0.064c-1.85,0.009-2.577-0.394-2.489-2.392c0.16-3.646,0.128-7.307,0.011-10.956
		c-0.057-1.784,0.453-2.366,2.316-2.349C415.537,84.378,425.359,84.328,435.183,84.328z"/>
	<path fill-rule="evenodd" fill="#79797A" d="M501.569,77.063c7.158-9.67,16.619-15.234,28.708-15.006
		c12.104,0.229,21.509,5.498,27.125,16.855c2.323-3.186,4.671-6.15,7.556-8.666c10.313-8.989,27.695-11.05,39.738-4.51
		c8.925,4.845,13.065,12.944,14.816,22.551c0.642,3.521,0.835,7.098,0.845,10.662c0.05,17.533-0.005,35.066,0.066,52.6
		c0.007,1.894-0.453,2.526-2.413,2.448c-3.891-0.156-7.796-0.161-11.685-0.001c-2.139,0.088-2.871-0.41-2.856-2.742
		c0.113-16.478,0.052-32.957,0.066-49.435c0.003-3.82-0.148-7.614-1.032-11.356c-1.928-8.173-6.989-12.475-15.398-13.011
		c-13.122-0.838-23.336,7.638-25.545,21.148c-0.409,2.497-0.52,4.996-0.518,7.516c0.01,15.179-0.024,30.358,0.042,45.537
		c0.009,1.75-0.336,2.416-2.244,2.346c-4.134-0.155-8.281-0.159-12.415,0c-1.939,0.075-2.246-0.653-2.239-2.371
		c0.057-16.478,0.04-32.956,0.028-49.435c-0.003-4.058-0.087-8.104-1.099-12.083c-2.021-7.935-6.99-12.117-15.179-12.655
		c-13.593-0.894-24.155,8.207-25.836,22.22c-0.3,2.503-0.429,5.004-0.426,7.523c0.018,14.53,0.022,29.061-0.001,43.591
		c-0.005,3.667,0.516,3.121-3.268,3.154c-3.734,0.033-7.471-0.069-11.201,0.043c-1.639,0.049-2.223-0.332-2.22-2.111
		c0.057-28.329,0.054-56.659,0.006-84.989c-0.003-1.615,0.473-2.092,2.059-2.052c3.976,0.098,7.956,0.099,11.931-0.001
		c1.564-0.04,2.182,0.368,2.102,2.021c-0.123,2.592-0.06,5.194-0.015,7.791C501.084,75.398,500.757,76.248,501.569,77.063z"/>
	<path fill-rule="evenodd" fill="#79797A" d="M696.938,141.751c-1.192,0.16-1.448,0.822-1.818,1.322
		c-8.099,10.956-18.952,15.16-32.354,13.401c-10.213-1.342-18.548-5.897-24.252-14.495c-9.942-14.988-3.894-34.813,13.02-41.808
		c14.343-5.933,28.942-5.521,43.302,0.434c1.615,0.671,2.069,0.821,2.152-1.249c0.553-13.772-11.393-21.836-21.386-22.379
		c-9.418-0.511-17.165,2.766-22.901,10.353c-0.919,1.214-1.539,1.185-2.71,0.415c-3.727-2.447-7.471-4.884-11.336-7.1
		c-1.801-1.032-1.443-1.799-0.424-3.093c5.622-7.142,12.806-11.943,21.63-14.013c11.071-2.597,22.105-2.411,32.67,2.188
		c12.158,5.294,18.809,14.875,20.009,27.979c1.073,11.729,0.268,23.517,0.407,35.278c0.09,7.546-0.032,15.094,0.054,22.64
		c0.019,1.726-0.303,2.449-2.236,2.373c-3.97-0.158-7.952-0.111-11.927-0.017c-1.478,0.036-1.983-0.371-1.933-1.899
		C697.013,148.705,696.938,145.32,696.938,141.751z M676.255,109.605c-7.357-0.008-13.697,1.313-19.086,5.637
		c-4.852,3.893-7.114,8.899-5.399,15.045c1.722,6.168,6.506,9.378,12.341,10.92c14.263,3.768,30.309-7.189,32.539-21.828
		c0.43-2.821-0.282-4.266-2.724-5.586C688.179,110.686,682.001,109.812,676.255,109.605z"/>
	<path fill-rule="evenodd" fill="#7A7A7B" d="M750.049,109.403c0,13.874-0.082,27.75,0.073,41.623
		c0.028,2.591-0.77,3.09-3.114,2.979c-3.967-0.188-7.951-0.117-11.924-0.019c-1.532,0.037-1.903-0.506-1.901-1.956
		c0.034-28.398,0.038-56.797-0.007-85.195c-0.002-1.656,0.574-2.04,2.119-2.006c4.217,0.095,8.44,0.117,12.654-0.008
		c1.774-0.052,2.139,0.588,2.133,2.228C750.023,81.166,750.049,95.285,750.049,109.403z"/>
	<path fill-rule="evenodd" fill="#79797A" d="M741.711,22.4c6.515,0.028,11.744,5.249,11.763,11.742
		c0.019,6.626-5.179,11.801-11.902,11.852c-6.401,0.048-11.747-5.278-11.798-11.756C729.723,27.7,735.094,22.372,741.711,22.4z"/>
	<path fill-rule="evenodd" fill="#F1F1F1" d="M31.101,1.336c0.71-0.584,1.556-0.351,2.344-0.351
		c65.631-0.011,131.261-0.01,196.892-0.006c0.73,0,1.458,0.05,2.188,0.076c-14.475,10.551-28.958,21.088-43.422,31.655
		C170.9,46.01,152.701,59.312,134.556,72.688c-1.514,1.116-2.402,1.056-3.89-0.029C99.226,49.731,67.737,26.869,36.264,3.986
		C34.675,2.832,32.958,1.953,31.101,1.336z"/>
	<path fill-rule="evenodd" fill="#DCDCDC" d="M117.298,122.767c-3.802,1.841-6.91,4.689-10.286,7.14
		c-12.279,8.909-24.503,17.894-36.753,26.842c-8.796,6.424-17.607,12.829-26.395,19.266c-0.528,0.387-0.977,0.851-1.677,0.873
		c-0.404-0.848-0.243-1.754-0.243-2.636c-0.009-40.375-0.009-80.749,0-121.125c0-0.803,0.112-1.606,0.17-2.411
		c0.638,0.037,0.976,0.532,1.379,0.918c4.153,3.976,8.229,8.031,12.375,12.014c9.404,9.032,18.719,18.155,28.18,27.13
		c7.877,7.474,15.532,15.181,23.312,22.756c2.782,2.709,5.649,5.331,8.469,8.002c0.424,0.401,0.858,0.743,1.473,0.745
		C117.301,122.442,117.3,122.604,117.298,122.767z"/>
	<path fill-rule="evenodd" fill="#CFCACA" d="M117.302,122.279c-0.615-0.002-1.049-0.344-1.473-0.745
		c-2.82-2.671-5.686-5.293-8.469-8.002c-7.78-7.575-15.435-15.282-23.312-22.756c-9.461-8.975-18.776-18.098-28.18-27.13
		c-4.146-3.982-8.222-8.038-12.375-12.014c-0.403-0.386-0.741-0.881-1.379-0.918c-0.094-0.338-0.189-0.676-0.283-1.015
		c0.01-1.105,0.021-2.211,0.031-3.317c0.942-0.194,1.5,0.516,2.126,0.97c28.912,20.97,57.813,41.954,86.711,62.942
		c0.453,0.328,0.844,0.742,1.265,1.114C127.076,115.033,122.19,118.656,117.302,122.279z"/>
	<path fill-rule="evenodd" fill="#C5483A" d="M41.862,46.383c-0.011,1.106-0.021,2.212-0.031,3.317
		c-5.091-3.487-8.754-8.421-12.999-12.808C33.281,39.949,38.119,42.414,41.862,46.383z"/>
</g>
</svg>
