<svg width="187" height="37" xmlns="http://www.w3.org/2000/svg" xmlns:svg="http://www.w3.org/2000/svg">
 <g class="layer">
  <title>Layer 1</title>
  <path id="svg_27" fill="#222426" d="m42,23l-2.2,-0.2c-1.7,-0.1 -2.3,-0.8 -2.3,-2c0,-1.4 1,-2.2 3,-2.2c1.3,-0.1 2.6,0.3 3.6,1.1l1.3,-1.3a7.5,7.5 0 0 0 -4.8,-1.4c-2.9,0 -4.9,1.5 -4.9,3.9c0,2.2 1.4,3.4 4,3.6l2.2,0.2c1.6,0.1 2.2,0.8 2.2,2c0,1.6 -1.4,2.4 -3.6,2.4c-1.6,0.1 -3.1,-0.5 -4.2,-1.6l-1.3,1.3c1.5,1.4 3.5,2 5.5,1.9c3.2,0 5.5,-1.5 5.5,-4.1c0,-2.6 -1.6,-3.4 -4,-3.6zm15.8,-6.1c-2.2,0 -3.5,0.4 -4.7,1.9l1.3,1.3a3.6,3.6 0 0 1 3.4,-1.5c2.5,0 3.4,1 3.4,2.9l0,1.3l-4,0c-3,0 -4.6,1.5 -4.6,3.9c0,1 0.3,2 1,2.7c0.8,0.9 1.9,1.2 3.8,1.2c1.4,0.1 2.9,-0.4 3.9,-1.4l0,1.3l2,0l0,-9.1c-0.1,-2.9 -1.9,-4.5 -5.5,-4.5zm3.4,8.9c0.1,0.8 -0.1,1.7 -0.7,2.3a4,4 0 0 1 -3,0.9c-2.1,0 -3.1,-0.7 -3.1,-2.3c0,-1.6 1,-2.4 3,-2.4l3.8,0l0,1.5zm9.7,-7.1c1.2,0 2.4,0.5 3.1,1.5l1.3,-1.3a5.4,5.4 0 0 0 -4.4,-2c-3.4,0 -5.9,2.3 -5.9,6.9c0,4.6 2.6,6.9 5.9,6.9c1.7,0.1 3.3,-0.7 4.4,-2l-1.3,-1.3c-0.7,1 -1.9,1.5 -3.1,1.5c-1.2,0.1 -2.4,-0.5 -3.1,-1.5c-0.7,-1.1 -1,-2.3 -0.9,-3.6c-0.1,-1.3 0.2,-2.5 0.9,-3.6c0.7,-1 1.9,-1.6 3.1,-1.5zm16.8,-1.6l-2.4,0l-6.1,5.9l0,-11.9l-2,0l0,19.4l2,0l0,-4.9l2.4,-2.4l4.5,7.3l2.4,0l-5.6,-8.6l4.8,-4.8zm9.2,-0.2c-1.6,0 -3.2,0.5 -4.3,1.7c-1.3,1.3 -1.6,3 -1.6,5.4c0,2.5 0.3,4.1 1.6,5.4a6.1,6.1 0 0 0 4.3,1.7c1.6,0.1 3.2,-0.5 4.3,-1.7c1.3,-1.3 1.6,-2.9 1.6,-5.4c0,-2.5 -0.3,-4 -1.6,-5.4a5.4,5.4 0 0 0 -4.3,-1.7zm1.7,10.5c-0.9,0.8 -2.3,0.8 -3.2,0c-0.7,-0.7 -0.8,-2 -0.8,-3.4s0.1,-2.7 0.8,-3.4c0.9,-0.8 2.3,-0.8 3.2,0c0.7,0.7 0.8,2 0.8,3.4c0,1.5 -0.1,2.7 -0.8,3.4zm13.6,-10.4l-2.8,8.6l-2.8,-8.6l-3.7,0l5.2,14l2.7,0l5.1,-14l-3.7,0zm9.6,0c-3.6,0 -6.1,2.5 -6.1,7c0,5.7 3.2,7.2 6.5,7.2c2,0.1 4,-0.7 5.3,-2.2l-2.1,-2c-0.8,0.8 -2,1.3 -3.2,1.2a3,3 0 0 1 -3.1,-2.7l0,-0.4l8.7,0l0,-1.6c0.1,-3.8 -2.1,-6.6 -6,-6.6l0,0.1zm-2.7,5.7l0.3,-1.5c0.4,-0.9 1.3,-1.4 2.3,-1.4c1,0 1.9,0.5 2.3,1.4l0.3,1.5l-5.2,0zm13.3,-4.3l0,-1.3l-3.4,0l0,14l3.5,0l0,-8.4c0,-1.3 0.8,-2.4 2.1,-2.6l0.2,0c0.7,0 1.4,0.3 1.8,0.8l2.6,-2.6a4.1,4.1 0 0 0 -3.2,-1.3c-1.3,0 -2.6,0.4 -3.5,1.4l-0.1,0zm7.6,-2.8l0,15.4l3.5,0l0,-11l2.6,0l0,-2.7l-2.6,0l0,-1.5c0,-0.6 0.3,-1.2 1,-1.3l1.5,0l0,-3l-2,0a3.9,3.9 0 0 0 -4,3.8l0,0.3zm20.3,1.3c-1.6,0 -3.2,0.5 -4.3,1.7c-1.3,1.3 -1.6,3 -1.6,5.4c0,2.5 0.3,4.1 1.6,5.4a6.1,6.1 0 0 0 4.3,1.7c1.6,0.1 3.2,-0.5 4.3,-1.7c1.3,-1.3 1.6,-2.9 1.6,-5.4c0,-2.5 -0.3,-4 -1.6,-5.4a5.4,5.4 0 0 0 -4.3,-1.7zm1.7,10.5c-0.9,0.8 -2.3,0.8 -3.2,0c-0.7,-0.7 -0.8,-2 -0.8,-3.4s0.1,-2.7 0.8,-3.4c0.9,-0.8 2.3,-0.8 3.2,0c0.7,0.7 0.8,2 0.8,3.4c0,1.5 -0.1,2.7 -0.8,3.4zm20.7,-10.4l-2.3,8.6l-2.9,-8.6l-2.5,0l-2.8,8.7l-2.3,-8.6l-3.7,0l4.3,14l2.9,0l2.9,-8.8l2.9,8.8l3,0l4.3,-14l-3.8,0l0,-0.1zm-31.2,9.8l0,-15.2l-3.5,0l0,15.4a3.8,3.8 0 0 0 3.6,4l2.5,0l0,-3l-1.3,0c-0.6,0.1 -1.1,-0.2 -1.3,-0.8l0,-0.4zm-98.8,-9.4l-3.7,0l0,-4.4l-2,0l0,13.9c0,2 1.1,3.6 3.4,3.6l1.4,0l0,-1.7l-1,0c-1.3,0 -1.8,-0.7 -1.8,-2l0,-7.7l1.9,0l1.8,-1.7z"/>
  <path id="svg_28" fill="#BCBBBB" d="m26,33l0,-9l4,0l0,13l-30,0l0,-13l4,0l0,9l22,0z"/>
  <path id="svg_29" fill="#F48024" d="m23,26l0.8,-3l-16.1,-3.3l-0.7,3.3l16,3zm-13.8,-10.8l15,7l1.4,-3l-15,-7l-1.4,3zm4.2,-7.4l12.6,10.6l2.1,-2.5l-12.7,-10.6l-2.1,2.5l0.1,0zm8.1,-7.8l-2.7,2l9.9,13.3l2.7,-2l-9.9,-13.3zm-14.5,30l16,0l0,-3l-16,0l0,3z"/>
 </g>
</svg>