<?xml version="1.0" encoding="utf-8"?>
<!-- Generator: Adobe Illustrator 23.0.2, SVG Export Plug-In . SVG Version: 6.00 Build 0)  -->
<svg version="1.1" id="Livello_1" xmlns="http://www.w3.org/2000/svg" xmlns:xlink="http://www.w3.org/1999/xlink" x="0px" y="0px"
	 viewBox="0 0 2500 1002" style="enable-background:new 0 0 2500 1002;" xml:space="preserve">
<style type="text/css">
	.st0{fill:#80CBC4;}
</style>
<path class="st0" d="M323.3,218.7C146.9,218.7,0,293.5,0,519.2C0,698,98.8,810.6,327.8,810.6c269.6,0,286.8-177.6,286.8-177.6H484
	c0,0-28,95.6-164.2,95.6c-110.9,0-190.7-74.9-190.7-180h499.2v-65.9C628.3,378.9,562.4,218.7,323.3,218.7L323.3,218.7z M318.7,302.9
	c105.6,0,177.6,64.7,177.6,161.6H132C132,361.6,226,302.9,318.7,302.9z"/>
<path class="st0" d="M628.2,0.1v697.1c0,39.6-2.8,95.1-2.8,95.1H750c0,0,4.5-39.9,4.5-76.4c0,0,61.5,96.3,228.9,96.3
	c176.2,0,295.9-122.4,295.9-297.7c0-163.1-110-294.2-295.7-294.2c-173.9,0-227.9,93.9-227.9,93.9V0.1H628.2z M951.5,306.6
	c119.7,0,195.8,88.8,195.8,208c0,127.8-87.9,211.4-194.9,211.4c-127.7,0-196.6-99.7-196.6-210.3
	C755.7,412.8,817.5,306.6,951.5,306.6L951.5,306.6z"/>
<path class="st0" d="M1588.9,218.7c-265.3,0-282.3,145.2-282.3,168.5h132c0,0,6.9-84.8,141.1-84.8c87.2,0,154.8,39.9,154.8,116.7
	v27.3h-154.8c-205.5,0-314.2,60.1-314.2,182.1c0,120.1,100.4,185.4,236,185.4c184.9,0,244.4-102.2,244.4-102.2
	c0,40.6,3.1,80.7,3.1,80.7h117.4c0,0-4.5-49.6-4.5-81.4V436.5C1862.1,256.6,1717,218.7,1588.9,218.7z M1734.6,528.3v36.4
	c0,47.5-29.3,165.6-201.9,165.6c-94.5,0-135-47.2-135-101.9C1397.7,528.9,1534.2,528.3,1734.6,528.3L1734.6,528.3z"/>
<path class="st0" d="M1791,241.5h148.5l213.2,427.1l212.7-427.1H2500l-387.4,760.4h-141.2l111.8-212L1791,241.5L1791,241.5z"/>
</svg>
