<?xml version="1.0" encoding="utf-8"?>
<!-- Generator: Adobe Illustrator 23.0.2, SVG Export Plug-In . SVG Version: 6.00 Build 0)  -->
<svg version="1.1" id="svg3400" xmlns:svg="http://www.w3.org/2000/svg"
	 xmlns="http://www.w3.org/2000/svg" xmlns:xlink="http://www.w3.org/1999/xlink" x="0px" y="0px" viewBox="0 0 500 85"
	 style="enable-background:new 0 0 500 85;" xml:space="preserve">
<style type="text/css">
	.st0{fill:#80CBC4;}
</style>
<g id="layer1" transform="translate(-357.71336,-784.65111)">
	<path id="path3898" class="st0" d="M413,806.7c0,0-1.5-3-2-4c-3.3-6.6-3.3-7-6.6-7.4c-0.9-0.1-1.4-0.2-1.4-0.7v-2.1l0.3-0.2
		c6.1,0,19.6,0,19.6,0l0.5,0.2v2.1c0,0.5-0.3,0.7-1,0.7l-1.4,0.2c-3.6,0.3-3,1.8-0.6,6.5l22.7,46.5l0.8,0.2l20.2-47.8
		c0.7-1.9,0.6-3.3-0.3-4.1c-0.9-0.8-1.5-1.2-3.9-1.3l-1.9-0.1c-0.2,0-0.5-0.1-0.7-0.2c-0.2-0.1-0.3-0.3-0.3-0.6v-2l0.3-0.2
		c5.7,0,22.8,0,22.8,0l0.2,0.2v2c0,0.5-0.3,0.8-0.9,0.8c-3,0.1-5.2,0.8-6.6,1.9c-1.4,1.2-2.6,2.8-3.4,4.9c0,0-18.5,42.4-24.9,56.5
		c-2.4,4.6-4.8,4.2-6.9-0.1c-4.4-9.1-16.9-36.9-16.9-36.9L413,806.7L413,806.7z"/>
	<path id="path3900" class="st0" d="M449.4,792.3c0,0-12.8,0-18.5,0l-0.3,0.2v2c0,0.2,0.1,0.4,0.3,0.6c0.2,0.2,0.4,0.2,0.7,0.2
		l0.9,0.1c2.3,0.1,3.4,0.7,3.7,1.1c0.6,0.7,0.8,1.4-0.5,4.4l-23.9,47.7l-0.6-0.2c0,0-17.1-36.1-22.1-48.2c-0.5-1.3-0.7-2.2-0.7-2.8
		c0-1.2,1.1-1.9,3.3-2l2.6-0.1c0.7,0,1-0.3,1-0.8v-2l-0.2-0.2c0,0-20.5,0-24.8,0l-0.2,0.2v2.1c0,0.4,0.5,0.6,1.4,0.7
		c2.6,0.1,4.3,0.6,5.1,1.2c0.8,0.7,1.7,2.5,2.8,5.2c6.2,15,19.5,41.7,25.9,56.9c1.9,4.2,4.2,4.8,7-0.1c4.9-9.1,18.2-36.9,18.2-36.9
		l10.5-19.6c1.2-2.1,2.4-3.9,3-4.8c1.1-1.6,1.7-1.9,4.7-2c0.6,0,0.9-0.3,0.9-0.8v-2L449.4,792.3L449.4,792.3z"/>
	<path id="path3904" class="st0" d="M488.3,854.2c0,2.3,1,3.6,4.4,4l2.2,0.2c0.3,0,0.6,0.2,0.6,0.6v2.2l-0.1,0.2
		c0,0-7.9-0.2-11.1-0.2c-2.9,0-11,0.2-11,0.2l-0.2-0.2V859c0-0.4,0.3-0.6,0.7-0.6l2.1-0.2c3.4-0.3,4.5-2,4.5-4v-34.6
		c0-2.3-1.3-2.9-4.5-3.2l-2.1-0.2c-0.4,0-0.7-0.1-0.7-0.4v-2.4l0.1-0.2c0,0,8.2,0.2,11.4,0.2c2.8,0,10.8-0.2,10.8-0.2l0.1,0.2v2.3
		c0,0.3-0.2,0.5-0.6,0.5l-2.2,0.2c-3.2,0.3-4.4,1.1-4.4,3.2L488.3,854.2L488.3,854.2z"/>
	<path id="path3906" class="st0" d="M519,854.2c0,2.3,1.4,3.4,4.4,4l1.1,0.2c0.3,0.1,0.6,0.2,0.6,0.6v2.2l-0.1,0.2
		c0,0-6.6-0.2-9.7-0.2c-2.9,0-11.4,0.2-11.4,0.2l-0.2-0.2V859c0-0.4,0.3-0.6,0.7-0.6l2.1-0.2c3.1-0.3,4.5-2,4.5-4v-34.6
		c0-2.3-1.1-2.9-4.5-3.2l-2.1-0.2c-0.4,0-0.7-0.1-0.7-0.4v-2.4l0.1-0.2c0,0,8.5,0.2,11.8,0.2c2.9,0,9.5-0.2,9.5-0.2l0.1,0.2v2.3
		c0,0.3-0.2,0.4-0.6,0.5l-1.1,0.2c-3.2,0.6-4.4,1.1-4.4,3.2v15.7c3.4,0,5.4-1.8,10-6.7c4.2-4.6,7.4-8.4,7.4-10.4
		c0-0.8-0.9-1.8-3-2.1c-0.4-0.1-0.6-0.2-0.6-0.5v-2.4l0.1-0.1c0,0,8.4,0.2,11.4,0.2c2.7,0,7.3-0.2,7.3-0.2l0.3,0.1v2.4
		c0,0.3-0.3,0.5-0.8,0.5c-4.1,0.3-6.9,0.5-10.6,4.8l-8.9,10.3c-1.8,1.9-2.4,3-2.4,3.9c0,0.6,0.4,1.1,0.9,1.8l15.7,18.9
		c1.2,1.5,3.7,2.1,5.8,2.5l0.5,0.1c0.3,0.1,0.7,0.3,0.7,0.6v2.2l-0.3,0.1c0,0-5.5-0.1-8.4-0.1c-2.6,0-6.3,0.1-6.3,0.1l-0.1-0.1v-1.2
		c0-1.4-0.1-2.5-1.6-4.2l-11.5-14.4c-1.6-2.1-3.2-2.6-5.5-2.6L519,854.2L519,854.2L519,854.2z"/>
	<path id="path3908" class="st0" d="M575.1,854.2c0,2.3,1,3.6,4.4,4l2.2,0.2c0.3,0,0.6,0.2,0.6,0.6v2.2l-0.1,0.2
		c0,0-7.9-0.2-11.1-0.2c-2.9,0-11,0.2-11,0.2l-0.2-0.2V859c0-0.4,0.3-0.6,0.7-0.6l2.1-0.2c3.4-0.3,4.5-2,4.5-4v-34.6
		c0-2.3-1.2-2.9-4.5-3.2l-2.1-0.2c-0.4,0-0.7-0.1-0.7-0.4v-2.4l0.1-0.2c0,0,8.2,0.2,11.4,0.2c2.8,0,10.8-0.2,10.8-0.2l0.1,0.2v2.3
		c0,0.3-0.2,0.5-0.6,0.5l-2.2,0.2c-3.2,0.3-4.4,1.1-4.4,3.2V854.2L575.1,854.2z"/>
	<path id="path3910" class="st0" d="M597.6,819.8c0-3.2-1.4-3.3-6.2-3.6c-0.6,0-0.7-0.3-0.7-0.5v-2.4l0.2-0.1
		c1.6,0,7.7,0.2,10.7,0.2c2.9,0,7.1-0.2,10.9-0.2c14.8,0,17.5,7.3,17.5,12.7c0,6.2-3,16-17.8,16c-2.6,0-4.7-0.2-6.6-1v13.9
		c0,2.3,1.2,2.8,4.6,3.3l2.1,0.3c0.4,0.1,0.7,0.2,0.7,0.6v2.2l-0.1,0.2c0,0-8.3-0.2-11.5-0.2c-2.9,0-10.7,0.2-10.7,0.2l-0.1-0.2V859
		c0-0.4,0.2-0.5,0.6-0.6l2.2-0.3c3.2-0.4,4.3-1.4,4.3-3.3L597.6,819.8L597.6,819.8L597.6,819.8z M605.6,837.9
		c2.1,0.8,4.7,0.9,6.8,0.9c6.2,0,9.2-3.8,9.2-11.8c0-8.9-4.1-10.9-9.8-10.9c-5,0-6.2,0.9-6.2,3.6L605.6,837.9L605.6,837.9z"/>
	<path id="path3912" class="st0" d="M647.8,861.2c-3.1,0-10.3,0.2-10.3,0.2l-0.1-0.2v-2.3c0-0.2,0.1-0.5,0.6-0.5l2.4-0.2
		c3.2-0.3,4.2-2.4,4.2-4.5v-34.3c0-2.4-1.3-2.8-4.2-3l-2.4-0.2c-0.6-0.1-0.6-0.3-0.6-0.4v-2.4l0.1-0.2c0,0,8.1,0.2,11.2,0.2H664
		c3.1,0,10.5-0.2,10.5-0.2l0.2,0.2c0.1,4.5,0.8,8.5,1.6,12.5l-2.6,0.4c-1.1-3.9-3.1-9.4-9.8-9.4h-8.3c-2,0-3,0.7-3,2.5v15.1h7.8
		c2.9,0,3.6-1.2,4.1-3.3l0.6-2.2c0-0.3,0.2-0.5,0.6-0.5h1.8c0.2,0,0.2,0.1,0.2,0.3c-0.2,2.3-0.6,5.2-0.6,7.7c0,2.6,0.4,4.8,0.6,7.2
		l-0.2,0.2h-1.8c-0.5,0-0.7-0.2-0.7-0.5l-0.5-2.3c-0.4-2.1-1.4-3.2-4.1-3.2h-7.8v15.9c0,2,1.1,3.9,3,3.9h9.9c5.3,0,8.2-3.3,9.5-8.7
		l2.6,0.3l-2.1,12l-0.2,0.2c0,0-6.1-0.2-9.3-0.2L647.8,861.2L647.8,861.2L647.8,861.2z"/>
	<path id="path3914" class="st0" d="M686.9,858.4l2.4-0.2c3.1-0.3,4.2-1.2,4.2-4.5v-34.3c0-2.7-0.7-2.7-4.2-3l-2.3-0.2
		c-0.4,0-0.7-0.2-0.7-0.5v-2.3l0.1-0.2c0,0,9.2,0.2,11,0.2c2,0,11-0.2,13.7-0.2c17.4,0,25.9,10.8,25.9,24.6
		c0,18.2-12.9,23.6-24.4,23.6c-8.3,0-12-0.2-15.2-0.2c-3.1,0-11,0.2-11,0.2l-0.1-0.2V859C686.3,858.7,686.5,858.4,686.9,858.4
		L686.9,858.4z M710.1,858.4c11.4,0,17.9-4.3,17.9-18.8c0-10.8-2.4-23.4-19.9-23.4c-4.1,0-6.7,0.6-6.7,3.2v34.3
		C701.5,856.6,702.2,858.4,710.1,858.4L710.1,858.4z"/>
	<path id="path3916" class="st0" d="M761.6,854.2c0,2.3,1,3.6,4.4,4l2.2,0.2c0.3,0,0.6,0.2,0.6,0.6v2.2l-0.1,0.2
		c0,0-7.9-0.2-11.1-0.2c-2.9,0-11,0.2-11,0.2l-0.2-0.2V859c0-0.4,0.3-0.6,0.7-0.6l2.1-0.2c3.4-0.3,4.5-2,4.5-4v-34.6
		c0-2.3-1.3-2.9-4.5-3.2l-2.1-0.2c-0.4,0-0.7-0.1-0.7-0.4v-2.4l0.1-0.2c0,0,8.2,0.2,11.4,0.2c2.8,0,10.8-0.2,10.8-0.2l0.1,0.2v2.3
		c0,0.3-0.2,0.5-0.6,0.5l-2.2,0.2c-3.2,0.3-4.4,1.1-4.4,3.2L761.6,854.2L761.6,854.2L761.6,854.2z"/>
	<path id="path3918" class="st0" d="M793.6,858.2l3,0.2c0.4,0,0.8,0.3,0.8,0.8v2l-0.2,0.2c0,0-11.3-0.2-13.8-0.2
		c-2.7,0-9.4,0.2-9.4,0.2l-0.2-0.2v-2c0-0.5,0.3-0.8,0.8-0.8c4.6-0.3,7.2-1.1,10.1-7.8l23.1-54.1c1.1-2.7,2-3.7,3.5-3.7
		c1.5,0,2,1,2.8,3.1l21.3,56.4c1.5,4.1,3.5,5.6,7.7,6l1.1,0.1c0.5,0,1,0.3,1,0.8v2l-0.3,0.2c0,0-8-0.2-12.1-0.2
		c-3.6,0-13.8,0.2-13.8,0.2l-0.1-0.2v-2c0-0.5,0.2-0.8,0.7-0.8l2.9-0.2c3.9-0.3,5.4-1.6,4.4-4.5l-6.3-17.6h-21.6
		c-2.5,0-3.1,0.4-3.6,1.8l-6,15.1C788.4,855.6,789.8,857.9,793.6,858.2L793.6,858.2z M819.1,831.8L809,804h-0.2l-10.4,26.4
		c-0.4,1,0.3,1.4,2.6,1.4L819.1,831.8L819.1,831.8z"/>
</g>
</svg>
