<svg width="1920" height="804.95" xmlns="http://www.w3.org/2000/svg" xmlns:svg="http://www.w3.org/2000/svg">
 <g class="layer">
  <title>Layer 1</title>
  <g id="svg_2" fill="#ee1d52">
   <path id="svg_3" d="m300,498.32l1.64,4.63c-0.26,-0.53 -0.86,-2.15 -1.64,-4.63zm-76.16,-32.93c2.88,-24.87 12.66,-38.8 31.09,-53.08c26.37,-19.34 59.31,-8.4 59.31,-8.4l0,-64.91a136.78,136.78 0 0 1 23.94,1.49l0,83.51s-32.93,-10.94 -59.3,8.4c-18.42,14.28 -28.22,28.22 -31.09,53.09c-0.09,13.52 2.34,31.18 13.53,46.45q-4.15,-2.22 -8.46,-5.06c-24.65,-17.27 -29.14,-43.17 -29.02,-61.49zm250.35,-246.39c-18.14,-20.74 -25,-41.68 -27.48,-56.39l22.82,0s-4.55,38.57 28.61,76.5l0.46,0.51a132.76,132.76 0 0 1 -24.41,-20.62z"/>
   <path id="svg_4" d="m584.12,277.81l0,81.83s-29.12,-1.18 -50.67,-6.91c-30.09,-8 -49.43,-20.26 -49.43,-20.26s-13.36,-8.76 -14.44,-9.36l0,169.05c0,9.4 -2.47,32.9 -10,52.51c-9.83,25.64 -25,42.47 -27.79,45.9c0,0 -18.45,22.76 -51,38.08c-29.34,13.82 -55.1,13.47 -62.8,13.82c0,0 -44.53,1.84 -84.6,-25.34a168.5,168.5 0 0 1 -24.16,-20.25l0.2,0.14c40.08,27.18 84.6,25.34 84.6,25.34c7.71,-0.35 33.47,0 62.8,-13.82c32.53,-15.32 51,-38.08 51,-38.08c2.76,-3.43 18,-20.26 27.79,-45.91c7.51,-19.6 10,-43.1 10,-52.51l0,-169.04c1.08,0.61 14.44,9.37 14.44,9.37s19.34,12.28 49.43,20.26c21.56,5.72 50.67,6.91 50.67,6.91l0,-64.12c9.96,2.33 18.45,2.97 23.96,2.39z"/>
  </g>
  <path id="svg_5" fill="#000000" d="m560.17,275.42l0,64.11s-29.11,-1.19 -50.67,-6.91c-30.09,-8 -49.43,-20.26 -49.43,-20.26s-13.36,-8.76 -14.44,-9.37l0,169.01c0,9.41 -2.47,32.91 -10,52.51c-9.83,25.65 -25,42.48 -27.79,45.91c0,0 -18.45,22.76 -51,38.08c-29.33,13.82 -55.09,13.47 -62.8,13.82c0,0 -44.52,1.84 -84.6,-25.34l-0.2,-0.14a159,159 0 0 1 -11.93,-13.52c-12.79,-16.28 -20.63,-35.51 -22.6,-41a0.14,0.14 0 0 1 0,-0.07c-3.18,-9.55 -9.84,-32.45 -8.93,-54.64c1.61,-39.16 14.81,-63.18 18.3,-69.21a162.85,162.85 0 0 1 35.54,-43.4a147.9,147.9 0 0 1 42.22,-25a143.89,143.89 0 0 1 29.78,-8.75a146.31,146.31 0 0 1 22.62,-2.25l0,64.87s-32.94,-10.94 -59.31,8.4c-18.43,14.28 -28.21,28.21 -31.09,53.08c-0.12,18.32 4.37,44.22 29,61.51q4.3,2.85 8.46,5.06a66,66 0 0 0 15.49,15c24.06,15.89 44.22,17 70,6.68c17.21,-6.81 30.1,-22.36 36.21,-39.6c3.77,-10.76 3.72,-21.6 3.72,-32.79l0,-318.59l60,0c2.48,14.71 9.34,35.65 27.48,56.39a132.76,132.76 0 0 0 24.41,20.62c2.64,2.85 16.14,16.93 33.47,25.59a130,130 0 0 0 28.09,10.2z"/>
  <path id="svg_6" fill="#69c9d0" d="m150.83,522.39l0,0.06l1.48,4.21c-0.16,-0.49 -0.72,-1.98 -1.48,-4.27z"/>
  <path id="svg_7" fill="#69c9d0" d="m261.84,350a147.9,147.9 0 0 0 -42.22,25a162.85,162.85 0 0 0 -35.52,43.49c-3.49,6 -16.69,30.05 -18.3,69.21c-0.91,22.19 5.75,45.09 8.93,54.64a0.14,0.14 0 0 0 0,0.07c2,5.44 9.81,24.67 22.6,41a159,159 0 0 0 11.93,13.52a166.64,166.64 0 0 1 -35.88,-33.64c-12.68,-16.13 -20.5,-35.17 -22.54,-40.79l-0.05,-0.12l0,-0.08c-3.18,-9.52 -9.86,-32.44 -8.93,-54.66c1.61,-39.16 14.81,-63.18 18.3,-69.21a162.69,162.69 0 0 1 35.52,-43.49a147.66,147.66 0 0 1 42.22,-25a143.89,143.89 0 0 1 29.78,-8.75a147.69,147.69 0 0 1 46.57,-0.69l0,18.5a146.31,146.31 0 0 0 -22.62,2.18a143.89,143.89 0 0 0 -29.79,8.82z"/>
  <path id="svg_8" fill="#69c9d0" d="m446.71,162.62l-60,0l0,318.61c0,11.19 0.05,22 -3.72,32.79c-6.06,17.22 -18.95,32.77 -36.13,39.67c-25.79,10.36 -45.95,9.21 -70,-6.68a66,66 0 0 1 -15.49,-15c20.49,10.93 38.83,10.74 61.55,1.62c17.08,-6.95 30.08,-22.5 36.08,-39.73c3.78,-10.76 3.73,-21.6 3.73,-32.78l0,-318.63l82.85,0s-0.94,7.93 1.13,20.13zm113.46,95.08l0,17.72a130,130 0 0 1 -28.1,-10.2c-17.33,-8.66 -30.83,-22.74 -33.47,-25.59a91.78,91.78 0 0 0 9.52,5.47c21.07,10.52 41.77,13.67 52.05,12.6z"/>
  <path id="svg_9" fill="none" d="m1448.72,437.3a46.08,46.08 0 0 1 -2,-13.45l0,-0.33a49.68,49.68 0 0 0 2,13.78zm99.19,-13.78l0,0.33a46.41,46.41 0 0 1 -2,13.45a50.82,50.82 0 0 0 2,-13.78z"/>
  <path id="svg_10" fill="#69c9d0" d="m1446.72,423.85a46.08,46.08 0 0 0 2,13.45a7.91,7.91 0 0 0 0.28,0.91a50.58,50.58 0 0 0 48.32,35.59l0,51.2c-24.91,0 -42.76,0.87 -69.91,-15.19c-31,-18.32 -48.42,-51.82 -48.42,-86.61c0,-35.86 19.48,-71.81 52.51,-89.12c23.94,-12.56 42.16,-12.65 65.82,-12.65l0,51.17a50.61,50.61 0 0 0 -50.6,50.6l0,0.65z"/>
  <path id="svg_11" fill="#ee1d52" d="m1548.31,423.85a45.75,45.75 0 0 1 -2,13.45a6.33,6.33 0 0 1 -0.28,0.91a50.56,50.56 0 0 1 -48.32,35.59l0,51.2c24.92,0 42.76,0.87 69.91,-15.19c31,-18.32 48.43,-51.82 48.43,-86.61c0,-35.86 -19.49,-71.81 -52.51,-89.12c-23.94,-12.56 -42.17,-12.65 -65.83,-12.65l0,51.17a50.61,50.61 0 0 1 50.61,50.6l-0.01,0.65z"/>
  <path id="svg_12" fill="#000000" d="m714.06,275l187.41,0l-17.32,51.57l-49,0l0,197.34l-60.37,0l0,-197.34l-60.72,0l0,-51.57zm496.7,0l0,51.57l60.72,0l0,197.34l60.33,0l0,-197.34l49,0l17.36,-51.57l-187.41,0zm-268.52,58.77a29.19,29.19 0 1 0 -29.19,-29.19a29.19,29.19 0 0 0 29.19,29.19zm-29.24,190.14l59.17,0l0,-169.51l-59.17,0l0,169.51zm272,-191.6l-69.18,0l-59.63,59.69l0,-116.81l-58.77,0l-0.2,248.72l59.36,0l0,-64.81l18.49,-16.73l57.6,81.54l63.45,0l-83.44,-119.25l72.32,-72.35zm567.54,72.35l72.35,-72.35l-69.18,0l-59.63,59.69l0,-116.81l-58.78,0l-0.19,248.72l59.36,0l0,-64.81l18.53,-16.73l57.61,81.54l63.39,0l-83.46,-119.25zm-152.1,18.54c0,56.21 -46.18,101.78 -103.15,101.78s-103.14,-45.57 -103.14,-101.78s46.18,-101.78 103.14,-101.78s103.17,45.58 103.17,101.78l-0.02,0zm-52.55,0a50.6,50.6 0 1 0 -50.6,50.6a50.59,50.59 0 0 0 50.62,-50.6l-0.02,0z"/>
 </g>
</svg>