<?xml version="1.0" encoding="utf-8"?>
<!-- Generator: Adobe Illustrator 23.0.2, SVG Export Plug-In . SVG Version: 6.00 Build 0)  -->
<svg version="1.1" id="Livello_1" xmlns="http://www.w3.org/2000/svg" xmlns:xlink="http://www.w3.org/1999/xlink" x="0px" y="0px"
	 viewBox="0 0 1466.7 948" style="enable-background:new 0 0 1466.7 948;" xml:space="preserve">
<style type="text/css">
	.st0{fill-rule:evenodd;clip-rule:evenodd;fill:#80CBC4;}
	.st1{fill:#80CBC4;}
</style>
<circle class="st0" cx="1223.3" cy="340" r="54.4"/>
<path class="st1" d="M445.8,572.1c26.7,0,42.1-20,41.1-39.5c-0.3-7.4-1.1-14.8-2.6-22.1c-16.4-70.9-73.9-123.3-142.3-123.3
	c-81.1,0-146.9,73.4-146.9,163.8c0,90.4,65.7,163.8,146.9,163.8c50.9,0,87.3-18.5,113.5-47.8c12.8-14.4,10.3-36.5-5.1-47.3
	c-12.8-8.7-28.8-5.6-40.6,4.1c-11.3,9.8-32.9,29.3-67.8,29.3c-41.1,0-76-35.4-83.7-82.2h187.4L445.8,572.1z M341.5,449.4
	c37,0,68.8,28.8,80.6,68.3H260.9C272.7,477.6,304.5,449.4,341.5,449.4z M198.2,419.6c0-15.4-11.3-27.7-25.7-30.3
	c-44.7-6.7-86.8,9.8-110.9,40.1v-4.1c0-19-15.4-30.8-30.8-30.8c-17,0-30.8,13.8-30.8,30.8v251.6c0,16.4,12.3,30.8,28.8,31.8
	c18,1,32.9-12.8,32.9-30.8V547.9c0-57.5,43.1-104.8,102.7-98.1h6.2C185.9,448.8,198.2,435.5,198.2,419.6L198.2,419.6z M1254.1,452.4
	c0-17-13.8-30.8-30.8-30.8c-17,0-30.8,13.8-30.8,30.8v225.4c0,17,13.8,30.8,30.8,30.8c17-0.1,30.8-13.8,30.8-30.8V452.4z M796,281.9
	c0-17-13.8-30.8-30.8-30.8c-17,0.1-30.8,13.8-30.8,30.8v137.1c-21.1-21.1-47.3-31.3-78.6-31.3c-81.1,0-146.9,73.4-146.9,163.8
	s65.7,163.8,146.9,163.8c31.3,0,58-10.8,79.1-31.8c2.6,14.4,15.4,25.2,30.3,25.2c17,0,30.8-13.8,30.8-30.8L796,281.9z M656.3,654.3
	c-47.3,0-85.3-45.7-85.3-102.7c0-56.5,38-102.7,85.3-102.7s85.3,45.7,85.3,102.7S703.1,654.3,656.3,654.3z M1117.5,281.9
	c0-17-13.8-30.8-30.8-30.8c-17,0-30.8,13.8-30.8,30.8v137.1c-21.1-21.1-47.2-31.3-78.6-31.3c-81.1,0-146.9,73.4-146.9,163.8
	s65.7,163.8,146.9,163.8c31.3,0,58-10.8,79.1-31.8c2.6,14.4,15.4,25.2,30.3,25.2c17,0,30.8-13.8,30.8-30.8V281.9z M977.3,654.3
	c-47.3,0-85.2-45.7-85.2-102.7c0-56.5,38-102.7,85.2-102.7c47.3,0,85.3,45.7,85.3,102.7S1024.5,654.3,977.3,654.3z M1410.2,678.4
	v-229h27.2c14.4,0,27.2-10.8,28.2-25.7c1-15.9-11.8-29.3-27.2-29.3h-28.2v-43.1c0-16.4-12.3-30.8-28.8-31.8
	c-18-1-32.9,12.8-32.9,30.8v44.7h-25.7c-14.4,0-27.2,10.8-28.2,25.7c-1,15.9,11.8,29.3,27.2,29.3h26.2v229
	c0.1,17,13.8,30.8,30.8,30.8C1396.9,708.7,1410.2,695.3,1410.2,678.4L1410.2,678.4z"/>
</svg>
