<?xml version="1.0" encoding="utf-8"?>
<!-- Generator: Adobe Illustrator 23.0.2, SVG Export Plug-In . SVG Version: 6.00 Build 0)  -->
<svg version="1.1"
	 id="svg2" inkscape:version="0.92.3 (2405546, 2018-03-11)" sodipodi:docname="Pinterest_Logo.svg" xmlns:cc="http://creativecommons.org/ns#" xmlns:dc="http://purl.org/dc/elements/1.1/" xmlns:inkscape="http://www.inkscape.org/namespaces/inkscape" xmlns:rdf="http://www.w3.org/1999/02/22-rdf-syntax-ns#" xmlns:sodipodi="http://sodipodi.sourceforge.net/DTD/sodipodi-0.dtd" xmlns:svg="http://www.w3.org/2000/svg"
	 xmlns="http://www.w3.org/2000/svg" xmlns:xlink="http://www.w3.org/1999/xlink" x="0px" y="0px" viewBox="0 0 1278.8 312.5"
	 style="enable-background:new 0 0 1278.8 312.5;" xml:space="preserve">
<style type="text/css">
	.st0{fill:#80CBC4;}
</style>
<sodipodi:namedview  bordercolor="#666666" borderopacity="1" gridtolerance="10" guidetolerance="10" id="namedview33" inkscape:current-layer="svg2" inkscape:cx="1109.4627" inkscape:cy="186.4406" inkscape:pageopacity="0" inkscape:pageshadow="2" inkscape:window-height="1005" inkscape:window-maximized="1" inkscape:window-width="1920" inkscape:window-x="-9" inkscape:window-y="-9" inkscape:zoom="1.499647" objecttolerance="10" pagecolor="#ffffff" showgrid="false">
	</sodipodi:namedview>
<g id="g16">
	<g id="g22" transform="translate(442.0549,159.8871)">
		<path id="path24" class="st0" d="M110.5-47.2h38.9v17.3h0.7c9.4-13.6,21.6-21.1,39.2-21.1c27.8,0,44.1,19.8,44.1,48.1v82.5H193
			V5.3c0-13.4-6.7-22.5-19.8-22.5c-13.4,0-22.3,11.2-22.3,26.8v70.1h-40.4L110.5-47.2z"/>
	</g>
	<g id="g26" transform="translate(438.5334,187.0405)">
		<path id="path28" class="st0" d="M109.6-108.3c0-13.4-10.8-24.2-24.2-24.2s-24.2,10.8-24.2,24.2C61.2-95,72-84.1,85.4-84.1
			S109.6-95,109.6-108.3"/>
	</g>
	<g id="g30" transform="translate(767.6262,161.353)">
		<path id="path32" class="st0" d="M191.9-50.5c-1.2-0.1-2.5-0.2-4-0.2c-15.4,0-25.8,6.7-34.7,21.8h-0.7v-19.8h-38.7V78.2h40.4v-57
			c0-26.4,14.6-38.6,37.7-36.5L191.9-50.5L191.9-50.5z"/>
	</g>
	<g id="g34" transform="translate(926.1896,122.4228)">
		<path id="path36" class="st0" d="M231.5,37c-16.1-3-30.5-4.2-30.5-13.1c0-7.9,7.7-11.6,17.6-11.6c11.1,0,18.8,3.5,20.3,14.9h37.2
			c-2-25-21.3-40.6-57.2-40.6c-30,0-54.8,13.9-54.8,40.6c0,29.7,23.5,35.7,45.6,39.4c16.8,3,32.2,4.2,32.2,15.6
			c0,8.2-7.7,12.6-19.8,12.6c-12.2,0-20.2-5.2-22.7-15.6h-38.5c2.8,26.1,25.7,41.9,61.4,41.9c33.2,0,57.7-14.4,57.7-42.1
			C280.1,46.5,253.8,40.8,231.5,37"/>
	</g>
	<g id="g38" transform="translate(817.7492,139.8666)">
		<path id="path40" class="st0" d="M204.4-2.2c13.1,0,22.5,9.7,24,24.8h-50.1C181.1,7.5,189.1-2.2,204.4-2.2 M206.7,74.4
			c-16.6,0-26-10.7-28.5-27.8h91.2c0.2-25.8-7.2-47.8-22.3-61.7C236.2-25,221.8-31,203.7-31c-38.7,0-65.2,29-65.2,66.9
			c0,38.4,25.8,67.4,67.6,67.4c16.1,0,29-4.2,39.6-11.6c11.1-7.7,18.6-18.6,21.3-30h-39.4C224.3,69.7,217.3,74.4,206.7,74.4"/>
	</g>
	<g id="g42" transform="translate(1021.9494,82.3271)">
		<path id="path44" class="st0" d="M255.5,127.3c-1.9,0.1-4.4,0.2-6.7,0.2c-8.7,0-14.1-2.5-14.1-12.4V55.6h20.8V30.3h-20.8V-9.8
			h-39.4v40.1h-12.4v25.3h12.4v68.1c0,27.3,16.9,34.9,40.4,34.9c9,0,15.8-0.7,19.8-1.5L255.5,127.3L255.5,127.3z"/>
	</g>
	<g id="g46" transform="translate(598.0783,82.2812)">
		<path id="path48" class="st0" d="M149.5,127.4c-1.6,0.1-3.5,0.1-5.2,0.1c-8.7,0-14.1-2.5-14.1-12.4V55.6h19.3V30.4h-19.3V-9.8
			H90.8v40.1H77.7v25.3h13.1v68.1c0,27.3,16.8,34.9,40.4,34.9c8,0,14.2-0.5,18.3-1.2V127.4z"/>
	</g>
	<g id="g50" transform="translate(668.4582,120.0429)">
		<path id="path52" class="st0" d="M167.1,42.4c-1.5-15.1-10.9-24.8-24-24.8c-15.4,0-23.3,9.7-26,24.8H167.1z M77.2,55.8
			c0-37.9,26.5-66.9,65.2-66.9c18.1,0,32.5,5.9,43.4,15.9c15.1,13.9,22.5,35.9,22.3,61.7h-91.2c2.5,17.1,11.9,27.8,28.5,27.8
			c10.7,0,17.6-4.7,21.1-12.6h39.4c-2.7,11.4-10.2,22.3-21.3,30c-10.7,7.4-23.5,11.6-39.6,11.6C102.9,123.2,77.2,94.2,77.2,55.8"/>
	</g>
	<g id="g54" transform="translate(346.8825,133.5224)">
		<path id="path56" class="st0" d="M86.7,12.1c15.9,0,24.8-9.4,24.8-23.5s-9.2-22.8-24.8-22.8h-31v46.3
			C55.7,12.1,86.7,12.1,86.7,12.1z M14.9-71.2H85c21.6,0,37.4,5.9,48.3,16.4c11.4,10.7,17.8,25.8,17.8,43.6c0,33.9-23.5,58-60,58
			H55.7V106H14.9V-71.2z"/>
	</g>
	<g id="g62" transform="translate(123.0422,246.9921)">
		<path id="path64" class="st0" d="M30.8-243.2c-84.2,0-152.5,68.3-152.5,152.5c0,64.6,40.2,119.8,96.9,142
			c-1.3-12.1-2.5-30.6,0.5-43.8C-21.5-4.4-6.4-68.3-6.4-68.3S-11-77.4-11-90.9c0-21.2,12.3-37,27.6-37c13,0,19.3,9.8,19.3,21.5
			c0,13.1-8.3,32.6-12.6,50.8C19.7-40.4,30.9-28,45.9-28C73-28.1,93.8-56.7,93.8-98c0-36.5-26.2-62-63.7-62
			c-43.4,0-68.9,32.5-68.9,66.2c0,13.1,5,27.2,11.3,34.8c1.2,1.5,1.4,2.8,1.1,4.4c-1.2,4.8-3.7,15.2-4.2,17.3
			c-0.7,2.8-2.2,3.4-5.1,2c-19-8.9-31-36.7-31-59.1c0-48.1,34.9-92.3,100.8-92.3c52.9,0,94,37.7,94,88.1C128.1-46.1,95-3.8,49-3.8
			c-15.5,0-30-8-35-17.5c0,0-7.6,29.1-9.5,36.3c-3.4,13.2-12.7,29.8-19,40c14.3,4.4,29.4,6.8,45.2,6.8
			c84.2,0,152.5-68.3,152.5-152.5C183.3-175,115-243.2,30.8-243.2"/>
	</g>
	<path id="path12" class="st0" d="M503.7,112.6h40.4v126.9h-40.4L503.7,112.6L503.7,112.6z"/>
</g>
</svg>
