<?xml version="1.0" encoding="utf-8"?>
<!-- Generator: Adobe Illustrator 23.0.2, SVG Export Plug-In . SVG Version: 6.00 Build 0)  -->
<svg version="1.1" id="Layer_1" xmlns="http://www.w3.org/2000/svg" xmlns:xlink="http://www.w3.org/1999/xlink" x="0px" y="0px"
	 viewBox="0 0 1490.3 1010" style="enable-background:new 0 0 1490.3 1010;" xml:space="preserve">
<style type="text/css">
	.st0{fill:#80CBC4;}
</style>
<path id="path6" class="st0" d="M336.7,531.7c-24.6-25.8-57.3-41.3-98-46.6v-1.2c32.7-11,58.5-28.8,76.9-54.3
	c18.7-25.2,27.9-55.2,27.9-90c0-41.3-15.4-74.2-46-100c-30.9-25.8-72.1-38.6-125-38.6H0v606.2h176.6c56.7,0,103.9-16,141-48.1
	c37.1-32.1,55.8-74.2,55.8-125.9C373.2,592.3,361,558.1,336.7,531.7L336.7,531.7z M70.7,266h81.6c77.5,0,116.1,29.4,116.1,88.2
	c0,34.1-11.3,60.3-33.5,79.6c-22.3,18.7-52.5,27.9-92,27.9H70.1V266L70.7,266L70.7,266z M264.2,714c-22.9,19.6-55.2,29.4-97.1,29.4
	H70.7V524.9h81.6c97.7,0,146.1,35.6,146.1,107.5C299,667.1,287.1,694.4,264.2,714L264.2,714z"/>
<path id="path8" class="st0" d="M499.4,278.8c-12.5,0-22.9-4.2-31.5-12.8c-8.9-8.9-12.8-19-12.8-32.1c0-12.8,4.2-23.8,12.8-32.7
	c8.9-8.9,19-12.8,31.5-12.8c12.8,0,23.2,4.2,32.7,12.8c8.9,8.9,13.4,19.6,13.4,32.7c0,12.5-4.8,22.9-13.4,31.5
	C522.5,274,511.5,278.8,499.4,278.8L499.4,278.8z"/>
<path id="rect10" class="st0" d="M463.7,378.5h69.2v429.6h-69.2V378.5z"/>
<path id="path3013" class="st0" d="M1004.1,808.1h-69.2V564.4c0-92-30.9-137.8-98-137.8c-34.7,0-63.5,12.8-86.1,39.2
	c-22.6,26.4-34.1,58.8-34.1,98.6v243.7h-69.2V378.5h69.2v70.4h1.5c32.7-54.6,79.6-80.5,139.5-80.5c47.5,0,83.7,15.4,108.4,46
	c25.2,30.6,37.7,74.8,37.7,132.7L1004.1,808.1z"/>
<path id="path13" class="st0" d="M1420.9,378.5v60h-1.5c-28.5-46.9-68.3-70.4-126.5-70.4c-61.5,0-109.8,21.7-145.2,65
	c-35.6,43.3-53.1,101.8-53.1,175.5c0,65,16.6,116.7,49,155c33,38.6,76.3,54.6,130,54.6c66.2,0,112.5-26.7,145.5-82.2h1.5v46.9
	c0,113.1-53.1,168.9-160,168.9c-71.8,0-118.8-31.5-118.8-31.5l-18.1,59.4c40.4,20.2,84,30,137.8,30c152.3,0,228.3-79.6,228.3-238.4
	V378.5H1420.9z M1420.9,612.5c0,43.3-12.5,78.4-36.5,106.3c-24.3,27.9-54.3,41.3-92.9,41.3c-38.3,0-69.2-14.5-92.3-43.3
	c-23.2-28.8-35.3-64.1-35.3-112.2c0-56.4,11.9-99.8,36.2-130.6c24.3-30.9,57.9-46.6,100.6-46.6c34.7,0,61.5,12.5,84.6,36.5
	c23.2,24.6,35,54.3,35,88.2v60L1420.9,612.5L1420.9,612.5z"/>
</svg>
