<?xml version="1.0" encoding="utf-8"?>
<!-- Generator: Adobe Illustrator 23.0.2, SVG Export Plug-In . SVG Version: 6.00 Build 0)  -->
<svg version="1.1" id="Livello_1" xmlns="http://www.w3.org/2000/svg" xmlns:xlink="http://www.w3.org/1999/xlink" x="0px" y="0px"
	 viewBox="0 0 455 187" style="enable-background:new 0 0 455 187;" xml:space="preserve">
<style type="text/css">
	.st0{fill:#80CBC4;}
	.st1{fill:#80CBC4;fill-opacity:0;stroke:#000000;stroke-opacity:0;}
</style>
<g>
	<g>
		<g>
			<g>
				<path id="g5jjnq26yS" class="st0" d="M6.3,7.2H52v175.6H6.3V7.2z"/>
			</g>
			<g>
				<g>
					<path class="st1" d="M6.3,7.2H52v175.6H6.3V7.2z"/>
				</g>
			</g>
		</g>
		<g>
			<g>
				<path id="i3Prh1JpXt" class="st0" d="M138.2,88.1c-3.9-26.8-6.1-41.6-6.5-44.6c-1.9-14.3-3.7-26.8-5.5-37.4
					c-3.9,0-23.7,0-59.2,0v175.7h40l0.1-116l16.8,116h28.5l15.9-118.6l0.1,118.6h39.8V6.1h-59.6L138.2,88.1z"/>
			</g>
			<g>
				<g>
					<path class="st1" d="M138.2,88.1c-3.9-26.8-6.1-41.6-6.5-44.6c-1.9-14.3-3.7-26.8-5.5-37.4c-3.9,0-23.7,0-59.2,0v175.7h40
						l0.1-116l16.8,116h28.5l15.9-118.6l0.1,118.6h39.8V6.1h-59.6L138.2,88.1z"/>
				</g>
			</g>
		</g>
		<g>
			<g>
				<path id="a4ov9rRGQm" class="st0" d="M283.7,42.6c0.5,2.2,0.8,7.3,0.8,15.3c0,6.8,0,61.3,0,68.1c0,11.7-0.8,18.8-2.3,21.5
					c-1.5,2.6-5.6,3.9-12.1,3.9c0-11.5,0-103.8,0-115.3c5,0,8.4,0.5,10.2,1.6C282,38.8,283.2,40.4,283.7,42.6z M304.3,179.9
					c5.4-1.2,10-3.3,13.7-6.3s6.3-7.1,7.8-12.5c1.5-5.3,2.4-15.8,2.4-31.6c0-6.2,0-55.5,0-61.7c0-16.6-0.7-27.8-1.7-33.4
					c-1-5.7-3.6-10.8-7.6-15.4c-4.1-4.6-10-7.9-17.8-10c-7.8-2-20.5-3-42.6-3c-2.3,0-13.6,0-34,0v175.7h55.3
					C292.5,181.3,300.7,180.8,304.3,179.9z"/>
			</g>
			<g>
				<g>
					<path class="st1" d="M283.7,42.6c0.5,2.2,0.8,7.3,0.8,15.3c0,6.8,0,61.3,0,68.1c0,11.7-0.8,18.8-2.3,21.5
						c-1.5,2.6-5.6,3.9-12.1,3.9c0-11.5,0-103.8,0-115.3c5,0,8.4,0.5,10.2,1.6C282,38.8,283.2,40.4,283.7,42.6z M304.3,179.9
						c5.4-1.2,10-3.3,13.7-6.3s6.3-7.1,7.8-12.5c1.5-5.3,2.4-15.8,2.4-31.6c0-6.2,0-55.5,0-61.7c0-16.6-0.7-27.8-1.7-33.4
						c-1-5.7-3.6-10.8-7.6-15.4c-4.1-4.6-10-7.9-17.8-10c-7.8-2-20.5-3-42.6-3c-2.3,0-13.6,0-34,0v175.7h55.3
						C292.5,181.3,300.7,180.8,304.3,179.9z"/>
				</g>
			</g>
		</g>
		<g>
			<g>
				<path id="fk968BpsX" class="st0" d="M401.8,153.7c-0.8,2.2-4.5,3.4-7.3,3.4c-2.7,0-4.5-1.1-5.4-3.3s-1.4-7.1-1.4-14.8
					c0-4.6,0-41.8,0-46.4c0-8,0.4-13,1.2-15c0.8-2,2.6-3,5.3-3c2.8,0,6.5,1.1,7.5,3.4c0.9,2.3,1.4,7.1,1.4,14.6c0,3,0,18,0,45
					C402.7,146.8,402.3,152.2,401.8,153.7z M343.7,180.2h41.1c1.7-6.7,2.6-10.4,2.8-11.2c3.7,4.5,7.8,7.9,12.3,10.1
					c4.5,2.3,11.2,3.4,16.3,3.4c7.2,0,13.4-1.9,18.7-5.7c5.2-3.8,8.6-8.3,10-13.4c1.4-5.2,2.1-13,2.1-23.5c0-4.9,0-44.4,0-49.3
					c0-10.6-0.2-17.5-0.7-20.8s-1.9-6.6-4.2-10c-2.3-3.4-5.7-6-10.2-7.9c-4.4-1.9-9.7-2.8-15.7-2.8c-5.3,0-12,1-16.5,3.1
					s-8.5,5.2-12.2,9.4c0-3.8,0-22.8,0-57.1h-44v175.7H343.7z"/>
			</g>
			<g>
				<g>
					<path class="st1" d="M401.8,153.7c-0.8,2.2-4.5,3.4-7.3,3.4c-2.7,0-4.5-1.1-5.4-3.3s-1.4-7.1-1.4-14.8c0-4.6,0-41.8,0-46.4
						c0-8,0.4-13,1.2-15c0.8-2,2.6-3,5.3-3c2.8,0,6.5,1.1,7.5,3.4c0.9,2.3,1.4,7.1,1.4,14.6c0,3,0,18,0,45
						C402.7,146.8,402.3,152.2,401.8,153.7z M343.7,180.2h41.1c1.7-6.7,2.6-10.4,2.8-11.2c3.7,4.5,7.8,7.9,12.3,10.1
						c4.5,2.3,11.2,3.4,16.3,3.4c7.2,0,13.4-1.9,18.7-5.7c5.2-3.8,8.6-8.3,10-13.4c1.4-5.2,2.1-13,2.1-23.5c0-4.9,0-44.4,0-49.3
						c0-10.6-0.2-17.5-0.7-20.8s-1.9-6.6-4.2-10c-2.3-3.4-5.7-6-10.2-7.9c-4.4-1.9-9.7-2.8-15.7-2.8c-5.3,0-12,1-16.5,3.1
						s-8.5,5.2-12.2,9.4c0-3.8,0-22.8,0-57.1h-44v175.7H343.7z"/>
				</g>
			</g>
		</g>
	</g>
</g>
</svg>
