<?xml version="1.0" encoding="utf-8"?>
<!-- Generator: Adobe Illustrator 23.0.2, SVG Export Plug-In . SVG Version: 6.00 Build 0)  -->
<svg version="1.1" id="Livello_1" xmlns="http://www.w3.org/2000/svg" xmlns:xlink="http://www.w3.org/1999/xlink" x="0px" y="0px"
	 viewBox="0 0 1741.6 751" style="enable-background:new 0 0 1741.6 751;" xml:space="preserve">
<style type="text/css">
	.st0{fill:#80CBC4;}
</style>
<path class="st0" d="M261.6,346.7c-64.7-15.4-76.2-26.3-76.2-49c0-21.5,20.2-36,50.4-36c29.2,0,58.1,11,88.5,33.6
	c0.9,0.7,2.1,1,3.2,0.8c1.1-0.2,2.2-0.8,2.8-1.7l31.6-44.6c1.3-1.8,0.9-4.4-0.8-5.8c-36.1-29-76.8-43.1-124.3-43.1
	c-69.9,0-118.7,41.9-118.7,102c0,64.4,42.1,87.1,114.9,104.7c61.9,14.3,72.4,26.2,72.4,47.6c0,23.7-21.1,38.4-55.2,38.4
	c-37.8,0-68.6-12.8-103.1-42.6c-0.9-0.7-2-1.1-3.1-1c-1.2,0.1-2.2,0.6-2.9,1.5l-35.5,42.2c-1.5,1.8-1.3,4.4,0.4,5.9
	c40.1,35.8,89.4,54.7,142.7,54.7c75.3,0,124-41.1,124-104.8c0.1-53.8-32.1-83.5-110.9-102.7L261.6,346.7z M543,282.8
	c-32.6,0-59.4,12.9-81.5,39.2v-29.7c0-2.3-1.9-4.2-4.2-4.2h-58c-2.3,0-4.2,1.9-4.2,4.2v329.5c0,2.3,1.9,4.3,4.2,4.3h58
	c2.3,0,4.2-1.9,4.2-4.3v-104c22.1,24.8,48.9,36.9,81.5,36.9c60.7,0,122.1-46.7,122.1-136C665.2,329.6,603.7,282.8,543,282.8
	L543,282.8z M597.6,418.8c0,45.4-28,77.2-68.1,77.2c-39.6,0-69.5-33.2-69.5-77.2c0-44,29.9-77.2,69.5-77.2
	C569,341.7,597.6,374.1,597.6,418.8L597.6,418.8z M822.4,282.8c-78.1,0-139.3,60.2-139.3,137c0,76,60.8,135.5,138.4,135.5
	c78.4,0,139.8-59.9,139.8-136.5C961.3,342.6,900.3,282.9,822.4,282.8L822.4,282.8z M822.4,496.5c-41.5,0-72.9-33.4-72.9-77.6
	c0-44.5,30.3-76.7,71.9-76.7c41.8,0,73.3,33.4,73.3,77.7C894.8,464.2,864.4,496.5,822.4,496.5L822.4,496.5z M1128.1,288.1h-63.8
	v-65.2c0-2.3-1.9-4.2-4.2-4.2c0,0,0,0,0,0h-58c-2.3,0-4.3,1.9-4.3,4.2v65.2H970c-2.3,0-4.2,1.9-4.2,4.2v49.8c0,2.3,1.9,4.2,4.2,4.2
	h27.8v128.9c0,52.1,25.9,78.5,77.1,78.5c20.8,0,38-4.3,54.3-13.5c1.3-0.7,2.1-2.1,2.1-3.7v-47.5c0-1.4-0.8-2.8-2-3.6
	c-1.2-0.8-2.8-0.9-4.1-0.2c-11.1,5.6-21.9,8.2-34,8.2c-18.6,0-26.9-8.5-26.9-27.4V346.5h63.8c2.3,0,4.2-1.9,4.2-4.2v-49.8
	c0.1-2.3-1.7-4.2-4-4.2C1128.2,288.2,1128.2,288.2,1128.1,288.1L1128.1,288.1z M1350.3,288.4v-8c0-23.6,9-34.1,29.3-34.1
	c12.1,0,21.8,2.4,32.7,6c1.3,0.4,2.7,0.2,3.8-0.6c1.1-0.8,1.8-2.1,1.7-3.4v-48.8c0-1.9-1.2-3.5-3-4.1c-11.5-3.4-26.1-6.9-48.2-6.9
	c-53.5,0-81.8,30.1-81.8,87.2v12.3H1257c-2.3,0-4.3,1.9-4.3,4.2v50.1c0,2.3,1.9,4.2,4.3,4.2h27.8v198.8c0,2.4,1.9,4.3,4.3,4.3h57.9
	c2.4,0,4.3-1.9,4.3-4.3V346.5h54.1l82.9,198.8c-9.4,20.9-18.7,25-31.3,25c-10.2,0-21-3-32-9.1c-1-0.5-2.2-0.6-3.4-0.3
	c-1.1,0.4-2.1,1.2-2.5,2.3l-19.7,43.1c-0.9,2.1-0.1,4.4,1.8,5.5c20.5,11.1,39,15.8,61.9,15.8c42.8,0,66.5-20,87.3-73.6l100.6-259.8
	c0.5-1.3,0.4-2.8-0.4-3.9c-0.8-1.2-2.1-1.8-3.4-1.8h-60.3c-1.8,0-3.4,1.2-4,2.8L1521,467.8l-67.7-176.7c-0.6-1.6-2.2-2.7-3.9-2.7
	L1350.3,288.4L1350.3,288.4z M1221.5,288.1h-58c-2.3,0-4.3,1.9-4.3,4.2v252.9c0,2.4,1.9,4.3,4.3,4.3h58c2.3,0,4.3-1.9,4.3-4.3V292.4
	C1225.7,290.1,1223.8,288.2,1221.5,288.1C1221.5,288.2,1221.5,288.2,1221.5,288.1L1221.5,288.1z M1192.8,173
	c-23,0-41.6,18.6-41.6,41.5c0,23,18.6,41.6,41.6,41.6s41.5-18.6,41.5-41.6C1234.3,191.6,1215.7,173,1192.8,173z"/>
</svg>
