<?xml version="1.0" encoding="UTF-8"?>
<svg xmlns="http://www.w3.org/2000/svg" width="1168" height="250" viewBox="0 0 1168 250">
  <g fill="none" fill-rule="evenodd" transform="translate(-.664 -.216)">
    <path fill="#000000" d="M451.954186,147.284239 L470.379702,98.8308774 C471.455654,95.9616889 475.490497,95.9616889 476.566449,98.8308774 L495.009935,147.275273 L451.954186,147.275273 L451.954186,147.284239 M493.76361,57.6222065 C492.450069,54.1483402 489.120903,51.8519112 485.407087,51.856933 L461.557034,51.856933 C457.841372,51.8533488 454.510458,54.1486025 453.191574,57.6222065 L402.595226,191.102071 C401.891006,192.967934 402.148411,195.059751 403.282934,196.699672 C404.41804,198.339592 406.28573,199.316905 408.279791,199.315117 L427.942696,199.315117 C430.465748,199.31063 432.725276,197.753205 433.627261,195.396883 L438.899395,181.526168 C439.796912,179.166262 442.059062,177.60704 444.58396,177.607934 L502.344221,177.607934 C504.85484,177.607934 507.123207,179.168059 508.01985,181.526168 L513.309954,195.387918 C514.2065,197.737061 516.448058,199.297186 518.985486,199.297186 L538.64839,199.297186 C540.644297,199.298974 542.514609,198.319864 543.650687,196.67905 C544.787541,195.037342 545.04582,192.942835 544.34228,191.075174 L493.763902,57.613241 L493.763902,57.6222065 M1161.62048,51.856933 L1142.22664,51.856933 C1137.11584,51.856933 1132.45342,54.7888798 1130.2478,59.3885468 L1091.73791,139.940919 L1053.22803,59.3885468 C1051.01338,54.7826049 1046.35095,51.8546892 1041.24025,51.856933 L1021.84631,51.856933 C1018.33162,51.856933 1015.48035,54.7071125 1015.48035,58.2229405 L1015.48035,192.940144 C1015.48035,196.46386 1018.32269,199.306152 1021.84631,199.306152 L1040.46921,199.306152 C1042.1638,199.31063 1043.78662,198.642631 1044.97913,197.44835 C1046.18068,196.254051 1046.85313,194.632071 1046.85313,192.940144 L1046.85313,123.066523 L1082.16197,195.728634 C1083.23792,197.91639 1085.46161,199.315117 1087.90035,199.315117 L1095.55751,199.315117 C1097.99635,199.315117 1100.21993,197.91639 1101.29589,195.728634 L1136.62269,123.066523 L1136.62269,192.940144 C1136.62269,196.46386 1139.47396,199.306152 1142.98875,199.306152 L1161.61154,199.306152 C1165.12624,199.306152 1167.9775,196.455788 1167.9775,192.940144 L1167.9775,58.2229405 C1167.9775,54.7071125 1165.12624,51.856933 1161.61154,51.856933 L1161.62048,51.856933 M397.565538,115.33766 L335.931773,115.33766 L335.931773,82.1896034 L413.910933,82.1896034 C416.564921,82.1896034 418.931976,80.5218831 419.828619,78.0292825 L426.194578,60.2403331 C426.879371,58.3165484 426.586027,56.1800795 425.409736,54.5112032 C424.232474,52.8424143 422.31816,51.8492206 420.2766,51.8479676 L311.812464,51.8479676 C308.346048,51.8479676 305.536062,54.6579724 305.536062,58.1243108 L305.536062,193.029809 C305.536062,196.496137 308.346048,199.306152 311.812464,199.306152 L329.619335,199.306152 C333.085653,199.306152 335.895639,196.496137 335.895639,193.029809 L335.895639,145.661355 L391.199191,145.661355 C393.853179,145.664939 396.22208,143.999016 397.116877,141.501034 L403.482933,123.712085 C404.171612,121.787941 403.881182,119.6495 402.703919,117.979099 C401.525686,116.308697 399.608749,115.317029 397.565344,115.319719 L397.565344,115.337203 M767.268792,170.228296 L741.446114,170.228296 L741.446114,80.9428418 L767.268792,80.9428418 C794.615713,80.9428418 813.050224,99.099404 813.050224,125.594539 C813.050224,152.071733 794.606747,170.228296 767.268792,170.228296 M766.372149,51.8564765 L715.471063,51.8564765 C712.004647,51.8564765 709.194662,54.6664814 709.194662,58.1328197 L709.194662,193.029352 C709.194662,196.495681 712.004647,199.305695 715.471063,199.305695 L766.381124,199.305695 C812.467401,199.305695 844.324325,167.269453 844.324325,126.006979 L844.324325,125.164149 C844.324325,83.9016751 812.494307,51.8564668 766.39009,51.8564668 L766.372605,51.8564668 M681.041286,52.062682 L662.212276,52.062682 C658.7513,52.062682 655.935875,54.8601372 655.935875,58.3121288 L655.935875,147.481022 L593.405564,55.7119331 C591.762642,53.2958255 589.028809,51.8514547 586.106731,51.8569233 L562.435987,51.8569233 C558.983072,51.8618577 556.186491,54.6624503 556.186491,58.1153356 L556.186491,193.056695 C556.186491,196.508687 558.992883,199.315108 562.444923,199.315108 L581.318809,199.315108 C584.773472,199.309726 587.571801,196.511378 587.577144,193.056695 L587.577144,105.429987 L649.058409,195.450676 C650.699291,197.871543 653.433901,199.306142 656.35695,199.306142 L681.07674,199.306142 C684.546653,199.306142 687.353045,196.508687 687.353045,193.056695 L687.353045,58.3125951 C687.350422,56.6511495 686.687678,55.0589313 685.510513,53.8866907 C684.33325,52.7144502 682.738215,52.0583984 681.07674,52.0631482 L681.037887,52.0631482 M971.811856,126.375039 C971.811856,150.350667 952.462791,169.771465 928.576817,169.771465 C904.646026,169.742325 885.274542,150.306733 885.323857,126.375039 L885.323857,124.796992 C885.323857,100.830329 904.690853,81.4005657 928.576817,81.4005657 C952.462791,81.4005657 971.820821,100.830329 971.820821,124.796992 L971.820821,126.384004 L971.811856,126.375039 M928.576895,51.0589298 C887.9062,51.0589298 854.946437,84.0814602 854.946437,124.796992 L854.946437,126.384004 C854.946437,167.117467 887.9062,200.122067 928.576895,200.122067 C969.238634,200.122067 1002.18943,167.126433 1002.18943,126.39297 L1002.18943,124.814923 C1002.18943,84.1083566 969.238634,51.0858262 928.576895,51.0858262 L928.576895,51.0586287"/>
    <path fill="#08D7D7" d="M113.63802,182.637933 C113.63802,184.727438 113.126125,187.695722 110.724976,189.960981 L101.740094,197.625785 L20.0297306,121.426914 L20.0297306,91.5293058 L109.878745,175.324637 C111.285924,176.642783 113.647831,179.357198 113.647831,182.647695 L113.63802,182.637933 Z M238.088253,93.7164592 L238.088253,121.446438 L136.429897,218.774779 C134.737243,220.356565 133.054399,221.069353 130.938629,221.069353 C128.77371,221.069353 126.854442,220.288202 125.230752,218.755245 L115.930962,210.416731 L238.088253,93.7066972 L238.088253,93.7164592 Z M160.639055,143.122703 L132.464019,169.720052 L43.2054811,85.45605 C38.7079891,81.2184397 36.2477827,75.5650256 36.2477827,69.5113132 C36.2477827,63.4771053 38.7079891,57.8237106 43.1758553,53.5958525 L71.3706094,26.969208 L160.62905,111.252754 C169.948656,120.040415 169.948656,134.325261 160.62905,143.112932 L160.639055,143.122703 Z M144.007504,69.7163531 L173.383115,41.986365 C177.890417,37.7487547 183.883576,35.4151428 190.260608,35.4151428 C196.657165,35.4151428 202.640707,37.7585264 207.138005,42.0058889 L237.448432,70.6146567 L191.21524,114.260086 L174.337843,98.3446351 L144.027222,69.7163531 L144.007504,69.7163531 Z M256.884723,65.3029887 L190.496741,1.54354595 L189.119091,0.215628951 L187.741345,1.52402204 L129.757578,56.7887105 L77.9345271,7.60704945 L77.8665334,7.53905575 L77.8179665,7.50991559 L71.3229167,2.33495379 L69.9845092,1.26090585 L68.7248773,2.43259274 L1.25443542,65.1863212 L0.663861554,65.7330877 L0.663861554,129.004326 L1.23500865,129.541379 L127.742051,248.907237 L129.119797,250.21563 L130.497544,248.917009 L256.886471,129.551141 L257.446934,129.014088 L257.446934,65.8307364 L256.896185,65.3034938 L256.884723,65.3029887 Z"/>
  </g>
</svg>
