<?xml version="1.0" encoding="utf-8"?>
<!-- Generator: Adobe Illustrator 23.0.2, SVG Export Plug-In . SVG Version: 6.00 Build 0)  -->
<svg version="1.1" id="Livello_1" xmlns="http://www.w3.org/2000/svg" xmlns:xlink="http://www.w3.org/1999/xlink" x="0px" y="0px"
	 viewBox="0 0 171.574 79.76" enable-background="new 0 0 171.574 79.76" xml:space="preserve">
<title>yelp_logo_vector</title>
<g id="Background">
	<rect x="-39.181" y="-39.777" fill="none" width="250" height="160"/>
</g>
<g id="Yelp_Logos">
	<path fill-rule="evenodd" clip-rule="evenodd" fill="#050505" d="M76.689,65.693c-0.002,2.088-1.695,3.779-3.783,3.777
		c-2.085-0.002-3.775-1.692-3.777-3.777v-37.61c0.002-2.088,1.695-3.779,3.783-3.777c2.085,0.002,3.775,1.692,3.777,3.777V65.693z"
		/>
	<path fill="#050505" d="M43.959,55.223h13.86c2.154-0.196,3.774-2.049,3.68-4.21l0,0c0-0.07,0-0.13,0-0.2
		c-0.67-13.8-9.54-15.8-13.56-15.8c-4.18,0-13.64,2.47-13.64,17.82c0.07,5.77,1.31,16.8,13.44,16.8c10.48,0,12.83-6.06,12.83-7.6
		c0-2.28-1.9-4.21-4-3.48c-1.74,0.59-4.12,4.05-8,4.05c-5.5,0-6.21-5-6.21-6.1C42.339,55.563,42.819,55.223,43.959,55.223z
		 M42.319,48.463c0.25-5.22,4.21-6.08,6-6.08s5.75,0.87,6,6.17c0,0.28-0.15,0.45-0.32,0.45h-11.35c-0.18-0.05-0.35-0.24-0.33-0.59
		V48.463z"/>
	<path fill="#050505" d="M12.959,64.773l-11.81-24.2c-0.939-1.933-0.133-4.261,1.8-5.2s4.261-0.133,5.2,1.8l9.15,18.73l5.62-18.18
		c0.635-2.049,2.811-3.195,4.86-2.56s3.195,2.811,2.56,4.86l0,0c0,0-6.32,20.68-10.12,32.56c-1.26,3.94-4.55,5.89-9.49,5.76
		s-5.65-3-5.1-4.89c0.59-2.09,2.34-2.72,4-2.72C14.049,70.763,14.619,68.083,12.959,64.773z"/>
	<path fill="#050505" d="M114.029,50.673c0-5-0.61-11.76-6.88-14.74c-3.573-1.71-7.75-1.602-11.23,0.29
		c-0.663,0.384-1.304,0.805-1.92,1.26c-0.5-2.027-2.548-3.265-4.575-2.765c-1.683,0.415-2.868,1.922-2.875,3.655v37.61
		c0.002,2.088,1.695,3.779,3.783,3.777c2.085-0.002,3.775-1.692,3.777-3.777v-9.87c1.679,1.904,4.046,3.062,6.58,3.22
		C115.039,69.703,114.099,54.093,114.029,50.673z M106.539,53.543c0,3,0,8.35-5.43,8.35s-5.43-5.37-5.43-8.35v-2.73
		c0-3,0-8.35,5.43-8.35s5.43,5.36,5.43,8.35V53.543z"/>
	<path fill-rule="evenodd" clip-rule="evenodd" fill="#D32323" d="M125.939,32.513l13.2,6.44c1.504,0.695,2.16,2.478,1.465,3.982
		c-0.391,0.847-1.154,1.463-2.065,1.668l-14.25,3.55c-1.603,0.417-3.242-0.544-3.659-2.148c-0.039-0.148-0.066-0.299-0.081-0.452
		c-0.442-3.818-0.036-7.687,1.19-11.33c0.533-1.569,2.236-2.409,3.805-1.876C125.68,32.393,125.812,32.448,125.939,32.513z"/>
	<path fill-rule="evenodd" clip-rule="evenodd" fill="#D32323" d="M131.219,59.683l9.83-10.91c1.08-1.257,2.974-1.4,4.231-0.32
		c0.709,0.61,1.094,1.516,1.039,2.45l-0.5,14.68c-0.04,1.656-1.415,2.967-3.072,2.926c-0.154-0.004-0.307-0.019-0.458-0.046
		c-3.777-0.631-7.37-2.078-10.53-4.24c-1.38-0.916-1.757-2.778-0.84-4.159C131.008,59.93,131.109,59.802,131.219,59.683z"/>
	<path fill-rule="evenodd" clip-rule="evenodd" fill="#D32323" d="M154.509,45.163l14,4.54c1.581,0.495,2.462,2.177,1.968,3.759
		c-0.045,0.144-0.101,0.285-0.168,0.421c-1.648,3.475-4.038,6.547-7,9c-1.268,1.066-3.16,0.903-4.227-0.365
		c-0.097-0.115-0.185-0.237-0.263-0.365l-7.79-12.46c-0.942-1.363-0.601-3.232,0.762-4.174
		C152.587,44.97,153.599,44.837,154.509,45.163z"/>
	<path fill-rule="evenodd" clip-rule="evenodd" fill="#D32323" d="M168.709,36.223l-14.11,4.05
		c-1.582,0.493-3.264-0.389-3.757-1.971c-0.279-0.894-0.124-1.866,0.417-2.63l8.21-12.18c0.912-1.383,2.773-1.765,4.156-0.853
		c0.125,0.082,0.243,0.174,0.354,0.273c2.875,2.533,5.153,5.671,6.67,9.19c0.678,1.512,0.002,3.287-1.509,3.965
		C169,36.131,168.856,36.183,168.709,36.223z"/>
	<path fill-rule="evenodd" clip-rule="evenodd" fill="#D32323" d="M135.729,2.003c-2.493,0.667-4.92,1.561-7.25,2.67
		c-1.501,0.701-2.15,2.486-1.449,3.988c0.042,0.09,0.088,0.177,0.139,0.262l13.79,23.89c0.775,1.465,2.59,2.024,4.055,1.249
		c1.017-0.538,1.637-1.61,1.595-2.759V3.713c0.006-1.657-1.332-3.005-2.989-3.011c-0.091,0-0.181,0.003-0.271,0.011
		C140.775,0.91,138.224,1.342,135.729,2.003z"/>
</g>
</svg>
